<svg width="1866" height="709" viewBox="0 0 1866 709" fill="none" xmlns="http://www.w3.org/2000/svg">
<path d="M0 20C0 8.95429 8.95431 0 20 0H1846C1857.05 0 1866 8.95431 1866 20V679.975C1866 691.021 1857.05 699.975 1846 699.975H20C8.95429 699.975 0 691.021 0 679.975V20Z" fill="url(#paint0_radial_45_3)"/>
<path d="M1096.73 594.392L1096.28 595.821L1096.28 595.821L1096.73 594.392ZM1157.82 613.651L1157.38 615.08L1157.38 615.08L1157.82 613.651ZM1169 613.907L1169.39 615.355L1169.39 615.355L1169 613.907ZM1198.16 606.146L1198.55 607.595L1198.55 607.595L1198.16 606.146ZM1056.09 632.656L1055.24 631.419L1055.24 631.419L1056.09 632.656ZM1062.68 625.057L1064.03 625.724L1064.03 625.724L1062.68 625.057ZM1072.82 604.552L1071.47 603.884L1071.47 603.884L1072.82 604.552ZM1315.1 611.982L1314.26 613.22L1314.26 613.22L1315.1 611.982ZM1349.29 635.23L1348.45 636.469L1348.45 636.469L1349.29 635.23ZM1367.59 637.444L1367.05 636.04L1367.05 636.04L1367.59 637.444ZM1410.75 622.442C1411.09 621.688 1410.75 620.799 1410 620.456L1397.69 614.859C1396.93 614.516 1396.04 614.848 1395.7 615.601C1395.36 616.355 1395.7 617.244 1396.45 617.587L1407.4 622.562L1402.46 633.474C1402.12 634.228 1402.45 635.117 1403.21 635.46C1403.96 635.804 1404.85 635.471 1405.19 634.718L1410.75 622.442ZM1243.01 639.353L1242.28 638.042L1242.28 638.042L1243.01 639.353ZM1260.38 629.718L1261.11 631.029L1261.11 631.029L1260.38 629.718ZM1294.11 611.009L1294.85 612.32L1294.85 612.32L1294.11 611.009ZM1218.73 623.499L1217.23 623.356L1217.23 623.356L1218.73 623.499ZM1096.28 595.821L1157.38 615.08L1158.27 612.221L1097.17 592.962L1096.28 595.821ZM1169.39 615.355L1198.55 607.595L1197.77 604.698L1168.61 612.458L1169.39 615.355ZM1030.23 652.182L1056.94 633.894L1055.24 631.419L1028.53 649.707L1030.23 652.182ZM1064.03 625.724L1074.16 605.219L1071.47 603.884L1061.34 624.389L1064.03 625.724ZM1314.26 613.22L1348.45 636.469L1350.13 633.992L1315.94 610.744L1314.26 613.22ZM1368.12 638.848L1409.91 623.224L1408.85 620.416L1367.05 636.04L1368.12 638.848ZM1243.74 640.665L1261.11 631.029L1259.65 628.407L1242.28 638.042L1243.74 640.665ZM1261.11 631.029L1294.85 612.32L1293.38 609.698L1259.65 628.407L1261.11 631.029ZM1348.45 636.469C1354.24 640.406 1361.57 641.293 1368.12 638.848L1367.05 636.04C1361.43 638.144 1355.11 637.38 1350.13 633.992L1348.45 636.469ZM1056.94 633.894C1059.97 631.823 1062.41 629.01 1064.03 625.724L1061.34 624.389C1059.94 627.216 1057.84 629.637 1055.24 631.419L1056.94 633.894ZM1315.94 610.744C1309.21 606.166 1300.48 605.761 1293.38 609.698L1294.85 612.32C1300.95 608.933 1308.46 609.281 1314.26 613.22L1315.94 610.744ZM1198.55 607.595C1208.55 604.934 1218.18 613.058 1217.23 623.356L1220.22 623.642C1221.36 611.264 1209.79 601.499 1197.77 604.698L1198.55 607.595ZM1157.38 615.08C1161.28 616.31 1165.45 616.406 1169.39 615.355L1168.61 612.458C1165.21 613.362 1161.63 613.28 1158.27 612.221L1157.38 615.08ZM1217.23 623.356C1215.92 637.652 1231.19 647.626 1243.74 640.665L1242.28 638.042C1231.83 643.834 1219.13 635.536 1220.22 623.642L1217.23 623.356ZM1097.17 592.962C1087.06 589.774 1076.15 594.408 1071.47 603.884L1074.16 605.219C1078.19 597.065 1087.58 593.078 1096.28 595.821L1097.17 592.962Z" fill="black"/>
<path d="M1096.73 603.277L1096.28 604.707L1096.28 604.707L1096.73 603.277ZM1157.82 622.536L1157.38 623.966L1157.38 623.966L1157.82 622.536ZM1169 622.792L1169.39 624.241L1169.39 624.241L1169 622.792ZM1198.16 615.032L1198.55 616.481L1198.55 616.481L1198.16 615.032ZM1056.09 641.542L1055.24 640.304L1055.24 640.304L1056.09 641.542ZM1062.68 633.942L1064.03 634.609L1064.03 634.609L1062.68 633.942ZM1072.82 613.437L1071.47 612.77L1071.47 612.77L1072.82 613.437ZM1315.1 620.868L1314.26 622.106L1314.26 622.106L1315.1 620.868ZM1349.29 644.116L1348.45 645.354L1348.45 645.354L1349.29 644.116ZM1367.59 646.329L1367.05 644.925L1367.05 644.925L1367.59 646.329ZM1410.75 631.327C1411.09 630.574 1410.75 629.685 1410 629.341L1397.69 623.745C1396.93 623.401 1396.04 623.734 1395.7 624.487C1395.36 625.24 1395.7 626.129 1396.45 626.473L1407.4 631.447L1402.46 642.36C1402.12 643.113 1402.45 644.002 1403.21 644.346C1403.96 644.689 1404.85 644.357 1405.19 643.603L1410.75 631.327ZM1243.01 648.239L1242.28 646.928L1242.28 646.928L1243.01 648.239ZM1260.38 638.603L1261.11 639.915L1261.11 639.915L1260.38 638.603ZM1294.11 619.894L1294.85 621.206L1294.85 621.206L1294.11 619.894ZM1218.73 632.385L1217.23 632.242L1217.23 632.242L1218.73 632.385ZM1096.28 604.707L1157.38 623.966L1158.27 621.107L1097.17 601.848L1096.28 604.707ZM1169.39 624.241L1198.55 616.481L1197.77 613.583L1168.61 621.344L1169.39 624.241ZM1030.23 661.067L1056.94 642.779L1055.24 640.304L1028.53 658.592L1030.23 661.067ZM1064.03 634.609L1074.16 614.105L1071.47 612.77L1061.34 633.275L1064.03 634.609ZM1314.26 622.106L1348.45 645.354L1350.13 642.878L1315.94 619.63L1314.26 622.106ZM1368.12 647.734L1409.91 632.109L1408.85 629.301L1367.05 644.925L1368.12 647.734ZM1243.74 649.55L1261.11 639.915L1259.65 637.292L1242.28 646.928L1243.74 649.55ZM1261.11 639.915L1294.85 621.206L1293.38 618.583L1259.65 637.292L1261.11 639.915ZM1348.45 645.354C1354.24 649.291 1361.57 650.179 1368.12 647.734L1367.05 644.925C1361.43 647.029 1355.11 646.266 1350.13 642.878L1348.45 645.354ZM1056.94 642.779C1059.97 640.708 1062.41 637.895 1064.03 634.609L1061.34 633.275C1059.94 636.102 1057.84 638.522 1055.24 640.304L1056.94 642.779ZM1315.94 619.63C1309.21 615.052 1300.48 614.647 1293.38 618.583L1294.85 621.206C1300.95 617.818 1308.46 618.167 1314.26 622.106L1315.94 619.63ZM1198.55 616.481C1208.55 613.819 1218.18 621.943 1217.23 632.242L1220.22 632.527C1221.36 620.149 1209.79 610.385 1197.77 613.583L1198.55 616.481ZM1157.38 623.966C1161.28 625.196 1165.45 625.291 1169.39 624.241L1168.61 621.344C1165.21 622.247 1161.63 622.165 1158.27 621.107L1157.38 623.966ZM1217.23 632.242C1215.92 646.538 1231.19 656.511 1243.74 649.55L1242.28 646.928C1231.83 652.719 1219.13 644.421 1220.22 632.527L1217.23 632.242ZM1097.17 601.848C1087.06 598.659 1076.15 603.294 1071.47 612.77L1074.16 614.105C1078.19 605.951 1087.58 601.963 1096.28 604.707L1097.17 601.848Z" fill="black"/>
<path d="M1096.73 612.163L1096.28 613.592L1096.28 613.592L1096.73 612.163ZM1157.82 631.422L1157.38 632.851L1157.38 632.851L1157.82 631.422ZM1169 631.678L1169.39 633.126L1169.39 633.126L1169 631.678ZM1198.16 623.917L1198.55 625.366L1198.55 625.366L1198.16 623.917ZM1056.09 650.427L1055.24 649.19L1055.24 649.19L1056.09 650.427ZM1062.68 642.827L1064.03 643.495L1064.03 643.495L1062.68 642.827ZM1072.82 622.322L1071.47 621.655L1071.47 621.655L1072.82 622.322ZM1315.1 629.753L1314.26 630.991L1314.26 630.991L1315.1 629.753ZM1349.29 653.001L1348.45 654.239L1348.45 654.239L1349.29 653.001ZM1367.59 655.215L1367.05 653.811L1367.05 653.811L1367.59 655.215ZM1410.75 640.212C1411.09 639.459 1410.75 638.57 1410 638.227L1397.69 632.63C1396.93 632.287 1396.04 632.619 1395.7 633.372C1395.36 634.126 1395.7 635.015 1396.45 635.358L1407.4 640.333L1402.46 651.245C1402.12 651.998 1402.45 652.888 1403.21 653.231C1403.96 653.574 1404.85 653.242 1405.19 652.489L1410.75 640.212ZM1243.01 657.124L1242.28 655.813L1242.28 655.813L1243.01 657.124ZM1260.38 647.489L1261.11 648.8L1261.11 648.8L1260.38 647.489ZM1294.11 628.78L1294.85 630.091L1294.85 630.091L1294.11 628.78ZM1218.73 641.27L1217.23 641.127L1217.23 641.127L1218.73 641.27ZM1096.28 613.592L1157.38 632.851L1158.27 629.992L1097.17 610.733L1096.28 613.592ZM1169.39 633.126L1198.55 625.366L1197.77 622.469L1168.61 630.229L1169.39 633.126ZM1030.23 669.952L1056.94 651.665L1055.24 649.19L1028.53 667.478L1030.23 669.952ZM1064.03 643.495L1074.16 622.99L1071.47 621.655L1061.34 642.16L1064.03 643.495ZM1314.26 630.991L1348.45 654.239L1350.13 651.763L1315.94 628.515L1314.26 630.991ZM1368.12 656.619L1409.91 640.995L1408.85 638.186L1367.05 653.811L1368.12 656.619ZM1243.74 658.435L1261.11 648.8L1259.65 646.178L1242.28 655.813L1243.74 658.435ZM1261.11 648.8L1294.85 630.091L1293.38 627.469L1259.65 646.178L1261.11 648.8ZM1348.45 654.239C1354.24 658.177 1361.57 659.064 1368.12 656.619L1367.05 653.811C1361.43 655.915 1355.11 655.151 1350.13 651.763L1348.45 654.239ZM1056.94 651.665C1059.97 649.593 1062.41 646.781 1064.03 643.495L1061.34 642.16C1059.94 644.987 1057.84 647.408 1055.24 649.19L1056.94 651.665ZM1315.94 628.515C1309.21 623.937 1300.48 623.532 1293.38 627.469L1294.85 630.091C1300.95 626.704 1308.46 627.052 1314.26 630.991L1315.94 628.515ZM1198.55 625.366C1208.55 622.705 1218.18 630.829 1217.23 641.127L1220.22 641.413C1221.36 629.034 1209.79 619.27 1197.77 622.469L1198.55 625.366ZM1157.38 632.851C1161.28 634.081 1165.45 634.176 1169.39 633.126L1168.61 630.229C1165.21 631.133 1161.63 631.05 1158.27 629.992L1157.38 632.851ZM1217.23 641.127C1215.92 655.423 1231.19 665.397 1243.74 658.435L1242.28 655.813C1231.83 661.605 1219.13 653.307 1220.22 641.413L1217.23 641.127ZM1097.17 610.733C1087.06 607.545 1076.15 612.179 1071.47 621.655L1074.16 622.99C1078.19 614.836 1087.58 610.849 1096.28 613.592L1097.17 610.733Z" fill="black"/>
<path d="M1096.34 586.161L1095.9 587.59L1095.9 587.59L1096.34 586.161ZM1157.44 605.42L1157 606.849L1157 606.849L1157.44 605.42ZM1168.62 605.676L1169.01 607.124L1169.01 607.124L1168.62 605.676ZM1197.78 597.915L1198.17 599.364L1198.17 599.364L1197.78 597.915ZM1055.71 624.425L1054.86 623.188L1054.86 623.188L1055.71 624.425ZM1062.3 616.825L1063.65 617.493L1063.65 617.493L1062.3 616.825ZM1072.43 596.32L1071.09 595.653L1071.09 595.653L1072.43 596.32ZM1314.72 603.751L1313.87 604.989L1313.87 604.989L1314.72 603.751ZM1348.91 626.999L1348.07 628.238L1348.07 628.238L1348.91 626.999ZM1367.2 629.213L1366.67 627.809L1366.67 627.809L1367.2 629.213ZM1410.37 614.21C1410.71 613.457 1410.37 612.568 1409.62 612.225L1397.31 606.628C1396.55 606.285 1395.66 606.617 1395.32 607.37C1394.98 608.124 1395.31 609.013 1396.07 609.356L1407.01 614.331L1402.07 625.243C1401.73 625.997 1402.07 626.886 1402.83 627.229C1403.58 627.572 1404.47 627.24 1404.81 626.487L1410.37 614.21ZM1242.63 631.122L1241.9 629.811L1241.9 629.811L1242.63 631.122ZM1260 621.487L1260.73 622.798L1260.73 622.798L1260 621.487ZM1293.73 602.778L1294.46 604.089L1294.46 604.089L1293.73 602.778ZM1218.35 615.268L1216.85 615.125L1216.85 615.125L1218.35 615.268ZM1095.9 587.59L1157 606.849L1157.89 603.99L1096.79 584.731L1095.9 587.59ZM1169.01 607.124L1198.17 599.364L1197.39 596.467L1168.23 604.227L1169.01 607.124ZM1029.85 643.95L1056.56 625.663L1054.86 623.188L1028.15 641.476L1029.85 643.95ZM1063.65 617.493L1073.78 596.988L1071.09 595.653L1060.96 616.158L1063.65 617.493ZM1313.87 604.989L1348.07 628.238L1349.75 625.761L1315.56 602.513L1313.87 604.989ZM1367.74 630.617L1409.53 614.993L1408.47 612.184L1366.67 627.809L1367.74 630.617ZM1243.36 632.434L1260.73 622.798L1259.27 620.176L1241.9 629.811L1243.36 632.434ZM1260.73 622.798L1294.46 604.089L1293 601.467L1259.27 620.176L1260.73 622.798ZM1348.07 628.238C1353.86 632.175 1361.19 633.062 1367.74 630.617L1366.67 627.809C1361.04 629.913 1354.73 629.149 1349.75 625.761L1348.07 628.238ZM1056.56 625.663C1059.59 623.591 1062.03 620.779 1063.65 617.493L1060.96 616.158C1059.56 618.985 1057.46 621.406 1054.86 623.188L1056.56 625.663ZM1315.56 602.513C1308.82 597.935 1300.1 597.53 1293 601.467L1294.46 604.089C1300.57 600.702 1308.08 601.05 1313.87 604.989L1315.56 602.513ZM1198.17 599.364C1208.17 596.703 1217.8 604.827 1216.85 615.125L1219.84 615.411C1220.98 603.033 1209.41 593.268 1197.39 596.467L1198.17 599.364ZM1157 606.849C1160.9 608.079 1165.07 608.175 1169.01 607.124L1168.23 604.227C1164.83 605.131 1161.25 605.049 1157.89 603.99L1157 606.849ZM1216.85 615.125C1215.53 629.421 1230.81 639.395 1243.36 632.434L1241.9 629.811C1231.45 635.603 1218.74 627.305 1219.84 615.411L1216.85 615.125ZM1096.79 584.731C1086.68 581.543 1075.77 586.177 1071.09 595.653L1073.78 596.988C1077.81 588.834 1087.19 584.847 1095.9 587.59L1096.79 584.731Z" fill="black"/>
<defs>
<radialGradient id="paint0_radial_45_3" cx="0" cy="0" r="1" gradientUnits="userSpaceOnUse" gradientTransform="translate(11.0001 -0.000151138) rotate(27.9859) scale(806.851 2108.48)">
<stop/>
<stop offset="0.507657"/>
<stop offset="1" stop-color="#EEEEEE" stop-opacity="0"/>
</radialGradient>
</defs>
</svg>
