<svg width="653" height="694" viewBox="0 0 653 694" fill="none" xmlns="http://www.w3.org/2000/svg">
<path d="M22 40C22 21.1438 22 11.7157 27.8579 5.85786C33.7157 0 43.1438 0 62 0H581C599.856 0 609.284 0 615.142 5.85786C621 11.7157 621 21.1438 621 40V626C621 644.856 621 654.284 615.142 660.142C609.284 666 599.856 666 581 666H62C43.1438 666 33.7157 666 27.8579 660.142C22 654.284 22 644.856 22 626V40Z" fill="black"/>
<circle cx="573" cy="83" r="80" fill="#D9D9D9" fill-opacity="0.28"/>
<circle cx="479" cy="88" r="60" fill="#D9D9D9" fill-opacity="0.16"/>
<path d="M-103 533C-103 643.457 -13.4569 733 97 733C207.457 733 297 643.457 297 533C297 422.543 207.457 333 97 333C-13.4569 333 -103 422.543 -103 533Z" fill="#D9D9D9" fill-opacity="0.16"/>
<path d="M413 553C413 624.245 355.245 682 284 682C212.755 682 155 624.245 155 553C155 481.755 212.755 424 284 424C355.245 424 413 481.755 413 553Z" fill="#D9D9D9" fill-opacity="0.1"/>
<path fill-rule="evenodd" clip-rule="evenodd" d="M566 183C566 189.627 560.627 195 554 195C547.373 195 542 189.627 542 183C542 176.373 547.373 171 554 171C560.627 171 566 176.373 566 183ZM554.43 179.859C553.263 180.344 550.93 181.349 547.432 182.873C546.864 183.099 546.566 183.32 546.539 183.536C546.493 183.902 546.951 184.045 547.573 184.241C547.658 184.268 547.746 184.295 547.836 184.325C548.449 184.524 549.273 184.757 549.701 184.766C550.09 184.774 550.524 184.614 551.003 184.285C554.271 182.079 555.958 180.964 556.064 180.94C556.139 180.923 556.243 180.901 556.313 180.964C556.383 181.026 556.376 181.144 556.369 181.176C556.323 181.369 554.528 183.038 553.599 183.902C553.31 184.171 553.104 184.362 553.062 184.406C552.968 184.503 552.872 184.596 552.78 184.685C552.211 185.233 551.784 185.645 552.804 186.317C553.294 186.64 553.686 186.907 554.077 187.173C554.504 187.464 554.93 187.754 555.482 188.116C555.622 188.208 555.756 188.303 555.887 188.397C556.384 188.751 556.831 189.069 557.383 189.019C557.703 188.989 558.034 188.688 558.203 187.788C558.6 185.663 559.382 181.058 559.562 179.161C559.578 178.995 559.558 178.782 559.542 178.689C559.526 178.595 559.493 178.462 559.371 178.364C559.228 178.247 559.006 178.222 558.906 178.224C558.455 178.232 557.762 178.473 554.43 179.859Z" fill="white"/>
<path fill-rule="evenodd" clip-rule="evenodd" d="M480 171C473.373 171 468 176.373 468 183C468 184.968 468.474 186.828 469.316 188.468L468.024 193.892C467.989 194.041 467.992 194.197 468.034 194.345C468.076 194.493 468.155 194.628 468.264 194.736C468.372 194.845 468.507 194.924 468.655 194.966C468.803 195.008 468.959 195.011 469.108 194.976L474.532 193.684C476.172 194.526 478.032 195 480 195C486.627 195 492 189.627 492 183C492 176.373 486.627 171 480 171ZM469.8 183C469.8 177.367 474.367 172.8 480 172.8C485.633 172.8 490.2 177.367 490.2 183C490.2 188.633 485.633 193.2 480 193.2C478.217 193.2 476.544 192.744 475.088 191.942C474.892 191.834 474.663 191.803 474.445 191.855L470.114 192.886L471.146 188.555C471.197 188.337 471.166 188.108 471.058 187.912C470.256 186.456 469.8 184.783 469.8 183ZM476.703 186.297C478.5 188.093 480.895 189.298 483.566 189.584C485.333 189.774 486.6 188.319 486.6 186.807V185.757C486.6 185.146 486.403 184.551 486.038 184.06C485.673 183.569 485.159 183.21 484.574 183.034L484.49 183.009L484.405 182.992L483.201 182.755C482.814 182.655 482.411 182.637 482.016 182.704C481.622 182.77 481.247 182.919 480.914 183.14C480.522 182.832 480.168 182.478 479.86 182.086C480.081 181.753 480.23 181.378 480.296 180.983C480.363 180.589 480.345 180.185 480.245 179.798L480.008 178.595L479.991 178.51L479.966 178.426C479.79 177.841 479.43 177.327 478.94 176.962C478.449 176.597 477.854 176.4 477.243 176.4H476.193C474.681 176.4 473.226 177.667 473.415 179.433C473.702 182.105 474.907 184.5 476.703 186.297ZM481.751 184.77C481.884 184.637 482.051 184.542 482.234 184.496C482.417 184.45 482.608 184.454 482.789 184.508L484.057 184.758C484.271 184.823 484.46 184.955 484.594 185.135C484.728 185.315 484.8 185.533 484.8 185.757V186.807C484.8 187.383 484.331 187.856 483.759 187.795C482.327 187.642 480.949 187.168 479.726 186.41C479.091 186.017 478.504 185.552 477.976 185.024C477.448 184.496 476.983 183.909 476.59 183.275C475.832 182.051 475.358 180.673 475.205 179.241C475.144 178.668 475.617 178.2 476.193 178.2H477.243C477.467 178.2 477.685 178.272 477.865 178.406C478.045 178.54 478.177 178.729 478.242 178.944L478.492 180.211C478.546 180.392 478.55 180.583 478.504 180.766C478.458 180.949 478.363 181.116 478.23 181.249L478.062 181.417C477.951 181.527 477.871 181.666 477.83 181.817C477.775 182.028 477.8 182.255 477.921 182.451C478.25 182.983 478.64 183.475 479.083 183.917C479.525 184.36 480.017 184.75 480.549 185.079C480.745 185.2 480.972 185.225 481.183 185.169C481.334 185.129 481.472 185.049 481.583 184.938L481.751 184.77Z" fill="white"/>
<path fill-rule="evenodd" clip-rule="evenodd" d="M394 175.8C394 173.149 396.149 171 398.8 171H413.2C415.851 171 418 173.149 418 175.8V190.2C418 192.851 415.851 195 413.2 195H398.8C396.149 195 394 192.851 394 190.2V175.8ZM398.8 173.4C397.475 173.4 396.4 174.475 396.4 175.8V190.2C396.4 191.526 397.475 192.6 398.8 192.6H413.2C414.526 192.6 415.6 191.526 415.6 190.2V175.8C415.6 174.475 414.526 173.4 413.2 173.4H398.8ZM406 179.4C404.012 179.4 402.4 181.012 402.4 183C402.4 184.988 404.012 186.6 406 186.6C407.988 186.6 409.6 184.988 409.6 183C409.6 181.012 407.988 179.4 406 179.4ZM400 183C400 179.686 402.686 177 406 177C409.314 177 412 179.686 412 183C412 186.314 409.314 189 406 189C402.686 189 400 186.314 400 183ZM412.6 178.2C413.594 178.2 414.4 177.394 414.4 176.4C414.4 175.406 413.594 174.6 412.6 174.6C411.606 174.6 410.8 175.406 410.8 176.4C410.8 177.394 411.606 178.2 412.6 178.2Z" fill="white"/>
<path d="M101 248H77V268H101V248ZM98.6 253L89 259.25L79.4 253V250.5L89 256.75L98.6 250.5V253Z" fill="white"/>
<path d="M98.4737 182.367H101C101 175.887 96.1078 171 89.6191 171V173.526C94.75 173.526 98.4737 177.244 98.4737 182.367Z" fill="white"/>
<path d="M89.6318 178.579C92.2882 178.579 93.4212 179.712 93.4212 182.368H95.9475C95.9475 178.295 93.7054 176.053 89.6318 176.053V178.579ZM93.9543 185.454C93.7115 185.234 93.3926 185.116 93.0648 185.126C92.7369 185.136 92.4258 185.273 92.1972 185.509L89.1745 188.617C88.447 188.478 86.9842 188.022 85.4786 186.52C83.9729 185.013 83.5169 183.547 83.3818 182.824L86.4878 179.8C86.7233 179.572 86.8606 179.261 86.8708 178.933C86.8809 178.605 86.763 178.286 86.5421 178.043L81.8748 172.911C81.6538 172.668 81.3467 172.52 81.0186 172.5C80.6905 172.479 80.3674 172.587 80.1178 172.801L77.3768 175.152C77.1584 175.371 77.028 175.663 77.0105 175.972C76.9915 176.288 76.6303 183.768 82.4306 189.571C87.4908 194.63 93.8292 195 95.5749 195C95.83 195 95.9866 194.992 96.0283 194.99C96.3372 194.973 96.6287 194.842 96.8468 194.622L99.1963 191.88C99.4104 191.631 99.5187 191.307 99.4985 190.979C99.4782 190.651 99.3308 190.344 99.0877 190.123L93.9543 185.454Z" fill="white"/>
<path d="M134.832 74L127.722 63.77L130.872 61.82L139.242 74H134.832ZM120.942 74V53H124.782V74H120.942ZM123.612 65.15V61.79H130.692V65.15H123.612ZM131.232 63.95L127.662 63.47L134.832 53H138.972L131.232 63.95ZM148.404 74.21C146.764 74.21 145.304 73.86 144.024 73.16C142.744 72.44 141.734 71.46 140.994 70.22C140.254 68.98 139.884 67.57 139.884 65.99C139.884 64.39 140.254 62.98 140.994 61.76C141.734 60.52 142.744 59.55 144.024 58.85C145.304 58.15 146.764 57.8 148.404 57.8C150.064 57.8 151.534 58.15 152.814 58.85C154.114 59.55 155.124 60.51 155.844 61.73C156.584 62.95 156.954 64.37 156.954 65.99C156.954 67.57 156.584 68.98 155.844 70.22C155.124 71.46 154.114 72.44 152.814 73.16C151.534 73.86 150.064 74.21 148.404 74.21ZM148.404 71C149.324 71 150.144 70.8 150.864 70.4C151.584 70 152.144 69.42 152.544 68.66C152.964 67.9 153.174 67.01 153.174 65.99C153.174 64.95 152.964 64.06 152.544 63.32C152.144 62.56 151.584 61.98 150.864 61.58C150.144 61.18 149.334 60.98 148.434 60.98C147.514 60.98 146.694 61.18 145.974 61.58C145.274 61.98 144.714 62.56 144.294 63.32C143.874 64.06 143.664 64.95 143.664 65.99C143.664 67.01 143.874 67.9 144.294 68.66C144.714 69.42 145.274 70 145.974 70.4C146.694 70.8 147.504 71 148.404 71ZM160.659 74V57.98H164.409V64.49H172.479V57.98H176.229V74H172.479V67.67H164.409V74H160.659ZM184.584 74V60.26L185.454 61.16H178.944V57.98H193.944V61.16H187.464L188.334 60.26V74H184.584ZM206.385 74V70.76L206.175 70.07V64.4C206.175 63.3 205.845 62.45 205.185 61.85C204.525 61.23 203.525 60.92 202.185 60.92C201.285 60.92 200.395 61.06 199.515 61.34C198.655 61.62 197.925 62.01 197.325 62.51L195.855 59.78C196.715 59.12 197.735 58.63 198.915 58.31C200.115 57.97 201.355 57.8 202.635 57.8C204.955 57.8 206.745 58.36 208.005 59.48C209.285 60.58 209.925 62.29 209.925 64.61V74H206.385ZM201.345 74.21C200.145 74.21 199.095 74.01 198.195 73.61C197.295 73.19 196.595 72.62 196.095 71.9C195.615 71.16 195.375 70.33 195.375 69.41C195.375 68.51 195.585 67.7 196.005 66.98C196.445 66.26 197.155 65.69 198.135 65.27C199.115 64.85 200.415 64.64 202.035 64.64H206.685V67.13H202.305C201.025 67.13 200.165 67.34 199.725 67.76C199.285 68.16 199.065 68.66 199.065 69.26C199.065 69.94 199.335 70.48 199.875 70.88C200.415 71.28 201.165 71.48 202.125 71.48C203.045 71.48 203.865 71.27 204.585 70.85C205.325 70.43 205.855 69.81 206.175 68.99L206.805 71.24C206.445 72.18 205.795 72.91 204.855 73.43C203.935 73.95 202.765 74.21 201.345 74.21ZM226.055 74L220.265 66.32L223.325 64.43L230.465 74H226.055ZM214.565 74V57.98H218.315V74H214.565ZM217.205 67.58V64.46H222.635V67.58H217.205ZM223.685 66.44L220.175 66.02L226.055 57.98H230.075L223.685 66.44ZM236.235 74V60.26L237.105 61.16H230.595V57.98H245.595V61.16H239.115L239.985 60.26V74H236.235ZM248.315 74V57.98H252.065V64.49H260.135V57.98H263.885V74H260.135V67.67H252.065V74H248.315ZM278.631 74V70.76L278.421 70.07V64.4C278.421 63.3 278.091 62.45 277.431 61.85C276.771 61.23 275.771 60.92 274.431 60.92C273.531 60.92 272.641 61.06 271.761 61.34C270.901 61.62 270.171 62.01 269.571 62.51L268.101 59.78C268.961 59.12 269.981 58.63 271.161 58.31C272.361 57.97 273.601 57.8 274.881 57.8C277.201 57.8 278.991 58.36 280.251 59.48C281.531 60.58 282.171 62.29 282.171 64.61V74H278.631ZM273.591 74.21C272.391 74.21 271.341 74.01 270.441 73.61C269.541 73.19 268.841 72.62 268.341 71.9C267.861 71.16 267.621 70.33 267.621 69.41C267.621 68.51 267.831 67.7 268.251 66.98C268.691 66.26 269.401 65.69 270.381 65.27C271.361 64.85 272.661 64.64 274.281 64.64H278.931V67.13H274.551C273.271 67.13 272.411 67.34 271.971 67.76C271.531 68.16 271.311 68.66 271.311 69.26C271.311 69.94 271.581 70.48 272.121 70.88C272.661 71.28 273.411 71.48 274.371 71.48C275.291 71.48 276.111 71.27 276.831 70.85C277.571 70.43 278.101 69.81 278.421 68.99L279.051 71.24C278.691 72.18 278.041 72.91 277.101 73.43C276.181 73.95 275.011 74.21 273.591 74.21ZM296.981 74V68.54L297.521 69.17H292.721C290.521 69.17 288.791 68.71 287.531 67.79C286.291 66.85 285.671 65.5 285.671 63.74C285.671 61.86 286.331 60.43 287.651 59.45C288.991 58.47 290.771 57.98 292.991 57.98H300.341V74H296.981ZM285.461 74L289.781 67.88H293.621L289.481 74H285.461ZM296.981 67.34V60.14L297.521 61.13H293.111C291.951 61.13 291.051 61.35 290.411 61.79C289.791 62.21 289.481 62.9 289.481 63.86C289.481 65.66 290.651 66.56 292.991 66.56H297.521L296.981 67.34ZM314.126 74V53H317.966V67.91L329.246 53H332.876V74H329.036V59.12L317.756 74H314.126ZM338.344 74V57.98H342.094V64.49H350.164V57.98H353.914V74H350.164V67.67H342.094V74H338.344ZM369.11 74.3C369.09 74.3 369 74.3 368.84 74.3C368.7 74.3 368.56 74.3 368.42 74.3C368.3 74.3 368.22 74.3 368.18 74.3C364.8 74.26 362.18 73.53 360.32 72.11C358.46 70.67 357.53 68.62 357.53 65.96C357.53 63.32 358.46 61.3 360.32 59.9C362.18 58.5 364.83 57.78 368.27 57.74C368.31 57.74 368.39 57.74 368.51 57.74C368.65 57.74 368.78 57.74 368.9 57.74C369.04 57.74 369.12 57.74 369.14 57.74C372.6 57.74 375.29 58.45 377.21 59.87C379.15 61.27 380.12 63.3 380.12 65.96C380.12 68.64 379.15 70.7 377.21 72.14C375.29 73.58 372.59 74.3 369.11 74.3ZM368.99 71.18C370.69 71.18 372.09 70.99 373.19 70.61C374.29 70.21 375.11 69.63 375.65 68.87C376.19 68.09 376.46 67.12 376.46 65.96C376.46 64.82 376.19 63.88 375.65 63.14C375.11 62.38 374.29 61.82 373.19 61.46C372.09 61.08 370.69 60.89 368.99 60.89C368.95 60.89 368.85 60.89 368.69 60.89C368.55 60.89 368.46 60.89 368.42 60.89C366.76 60.89 365.4 61.09 364.34 61.49C363.28 61.87 362.49 62.43 361.97 63.17C361.47 63.91 361.22 64.84 361.22 65.96C361.22 67.1 361.47 68.05 361.97 68.81C362.49 69.57 363.28 70.15 364.34 70.55C365.42 70.95 366.78 71.16 368.42 71.18C368.46 71.18 368.55 71.18 368.69 71.18C368.85 71.18 368.95 71.18 368.99 71.18ZM367.04 79.82V51.74H370.58V79.82H367.04ZM390.894 74.21C389.254 74.21 387.794 73.86 386.514 73.16C385.234 72.44 384.224 71.46 383.484 70.22C382.744 68.98 382.374 67.57 382.374 65.99C382.374 64.39 382.744 62.98 383.484 61.76C384.224 60.52 385.234 59.55 386.514 58.85C387.794 58.15 389.254 57.8 390.894 57.8C392.554 57.8 394.024 58.15 395.304 58.85C396.604 59.55 397.614 60.51 398.334 61.73C399.074 62.95 399.444 64.37 399.444 65.99C399.444 67.57 399.074 68.98 398.334 70.22C397.614 71.46 396.604 72.44 395.304 73.16C394.024 73.86 392.554 74.21 390.894 74.21ZM390.894 71C391.814 71 392.634 70.8 393.354 70.4C394.074 70 394.634 69.42 395.034 68.66C395.454 67.9 395.664 67.01 395.664 65.99C395.664 64.95 395.454 64.06 395.034 63.32C394.634 62.56 394.074 61.98 393.354 61.58C392.634 61.18 391.824 60.98 390.924 60.98C390.004 60.98 389.184 61.18 388.464 61.58C387.764 61.98 387.204 62.56 386.784 63.32C386.364 64.06 386.154 64.95 386.154 65.99C386.154 67.01 386.364 67.9 386.784 68.66C387.204 69.42 387.764 70 388.464 70.4C389.184 70.8 389.994 71 390.894 71ZM412.029 74.21C410.729 74.21 409.539 73.91 408.459 73.31C407.399 72.71 406.549 71.81 405.909 70.61C405.289 69.39 404.979 67.85 404.979 65.99C404.979 64.11 405.279 62.57 405.879 61.37C406.499 60.17 407.339 59.28 408.399 58.7C409.459 58.1 410.669 57.8 412.029 57.8C413.609 57.8 414.999 58.14 416.199 58.82C417.419 59.5 418.379 60.45 419.079 61.67C419.799 62.89 420.159 64.33 420.159 65.99C420.159 67.65 419.799 69.1 419.079 70.34C418.379 71.56 417.419 72.51 416.199 73.19C414.999 73.87 413.609 74.21 412.029 74.21ZM403.149 79.82V57.98H406.719V61.76L406.599 66.02L406.899 70.28V79.82H403.149ZM411.609 71C412.509 71 413.309 70.8 414.009 70.4C414.729 70 415.299 69.42 415.719 68.66C416.139 67.9 416.349 67.01 416.349 65.99C416.349 64.95 416.139 64.06 415.719 63.32C415.299 62.56 414.729 61.98 414.009 61.58C413.309 61.18 412.509 60.98 411.609 60.98C410.709 60.98 409.899 61.18 409.179 61.58C408.459 61.98 407.889 62.56 407.469 63.32C407.049 64.06 406.839 64.95 406.839 65.99C406.839 67.01 407.049 67.9 407.469 68.66C407.889 69.42 408.459 70 409.179 70.4C409.899 70.8 410.709 71 411.609 71ZM423.891 74V57.98H427.821L434.271 69.35H432.711L439.491 57.98H443.001L443.031 74H439.641V62L440.241 62.39L434.241 72.32H432.621L426.591 62.12L427.311 61.94V74H423.891ZM457.781 74V70.76L457.571 70.07V64.4C457.571 63.3 457.241 62.45 456.581 61.85C455.921 61.23 454.921 60.92 453.581 60.92C452.681 60.92 451.791 61.06 450.911 61.34C450.051 61.62 449.321 62.01 448.721 62.51L447.251 59.78C448.111 59.12 449.131 58.63 450.311 58.31C451.511 57.97 452.751 57.8 454.031 57.8C456.351 57.8 458.141 58.36 459.401 59.48C460.681 60.58 461.321 62.29 461.321 64.61V74H457.781ZM452.741 74.21C451.541 74.21 450.491 74.01 449.591 73.61C448.691 73.19 447.991 72.62 447.491 71.9C447.011 71.16 446.771 70.33 446.771 69.41C446.771 68.51 446.981 67.7 447.401 66.98C447.841 66.26 448.551 65.69 449.531 65.27C450.511 64.85 451.811 64.64 453.431 64.64H458.081V67.13H453.701C452.421 67.13 451.561 67.34 451.121 67.76C450.681 68.16 450.461 68.66 450.461 69.26C450.461 69.94 450.731 70.48 451.271 70.88C451.811 71.28 452.561 71.48 453.521 71.48C454.441 71.48 455.261 71.27 455.981 70.85C456.721 70.43 457.251 69.81 457.571 68.99L458.201 71.24C457.841 72.18 457.191 72.91 456.251 73.43C455.331 73.95 454.161 74.21 452.741 74.21ZM465.961 74V57.98H469.711V70.82H477.361V57.98H481.111V74H465.961ZM480.031 77.57V73.91L480.901 74H477.361V70.82H483.541V77.57H480.031ZM486.879 74V57.98H490.629V68.54L499.479 57.98H502.899V74H499.149V63.44L490.329 74H486.879ZM518.114 74V68.54L518.654 69.17H513.854C511.654 69.17 509.924 68.71 508.664 67.79C507.424 66.85 506.804 65.5 506.804 63.74C506.804 61.86 507.464 60.43 508.784 59.45C510.124 58.47 511.904 57.98 514.124 57.98H521.474V74H518.114ZM506.594 74L510.914 67.88H514.754L510.614 74H506.594ZM518.114 67.34V60.14L518.654 61.13H514.244C513.084 61.13 512.184 61.35 511.544 61.79C510.924 62.21 510.614 62.9 510.614 63.86C510.614 65.66 511.784 66.56 514.124 66.56H518.654L518.114 67.34Z" fill="white"/>
<path d="M125.688 256.584C125.688 255.688 125.869 254.904 126.232 254.232C126.595 253.549 127.091 253.021 127.72 252.648C128.36 252.275 129.075 252.088 129.864 252.088C130.547 252.088 131.181 252.248 131.768 252.568C132.355 252.877 132.803 253.288 133.112 253.8V249.16H134.584V261H133.112V259.352C132.824 259.875 132.397 260.307 131.832 260.648C131.267 260.979 130.605 261.144 129.848 261.144C129.069 261.144 128.36 260.952 127.72 260.568C127.091 260.184 126.595 259.645 126.232 258.952C125.869 258.259 125.688 257.469 125.688 256.584ZM133.112 256.6C133.112 255.939 132.979 255.363 132.712 254.872C132.445 254.381 132.083 254.008 131.624 253.752C131.176 253.485 130.68 253.352 130.136 253.352C129.592 253.352 129.096 253.48 128.648 253.736C128.2 253.992 127.843 254.365 127.576 254.856C127.309 255.347 127.176 255.923 127.176 256.584C127.176 257.256 127.309 257.843 127.576 258.344C127.843 258.835 128.2 259.213 128.648 259.48C129.096 259.736 129.592 259.864 130.136 259.864C130.68 259.864 131.176 259.736 131.624 259.48C132.083 259.213 132.445 258.835 132.712 258.344C132.979 257.843 133.112 257.261 133.112 256.6ZM145.045 256.28C145.045 256.557 145.029 256.851 144.997 257.16H137.989C138.042 258.024 138.335 258.701 138.869 259.192C139.413 259.672 140.069 259.912 140.837 259.912C141.466 259.912 141.989 259.768 142.405 259.48C142.831 259.181 143.13 258.787 143.301 258.296H144.869C144.634 259.139 144.165 259.827 143.461 260.36C142.757 260.883 141.882 261.144 140.837 261.144C140.005 261.144 139.258 260.957 138.597 260.584C137.946 260.211 137.434 259.683 137.061 259C136.687 258.307 136.501 257.507 136.501 256.6C136.501 255.693 136.682 254.899 137.045 254.216C137.407 253.533 137.914 253.011 138.565 252.648C139.226 252.275 139.983 252.088 140.837 252.088C141.669 252.088 142.405 252.269 143.045 252.632C143.685 252.995 144.175 253.496 144.517 254.136C144.869 254.765 145.045 255.48 145.045 256.28ZM143.541 255.976C143.541 255.421 143.418 254.947 143.173 254.552C142.927 254.147 142.591 253.843 142.165 253.64C141.749 253.427 141.285 253.32 140.773 253.32C140.037 253.32 139.407 253.555 138.885 254.024C138.373 254.493 138.079 255.144 138.005 255.976H143.541ZM157.51 252.072C158.193 252.072 158.801 252.216 159.334 252.504C159.868 252.781 160.289 253.203 160.598 253.768C160.908 254.333 161.062 255.021 161.062 255.832V261H159.622V256.04C159.622 255.165 159.404 254.499 158.966 254.04C158.54 253.571 157.958 253.336 157.222 253.336C156.465 253.336 155.862 253.581 155.414 254.072C154.966 254.552 154.742 255.251 154.742 256.168V261H153.302V256.04C153.302 255.165 153.084 254.499 152.646 254.04C152.22 253.571 151.638 253.336 150.902 253.336C150.145 253.336 149.542 253.581 149.094 254.072C148.646 254.552 148.422 255.251 148.422 256.168V261H146.966V252.232H148.422V253.496C148.71 253.037 149.094 252.685 149.574 252.44C150.065 252.195 150.604 252.072 151.19 252.072C151.926 252.072 152.577 252.237 153.142 252.568C153.708 252.899 154.129 253.384 154.406 254.024C154.652 253.405 155.057 252.925 155.622 252.584C156.188 252.243 156.817 252.072 157.51 252.072ZM167.275 261.144C166.453 261.144 165.707 260.957 165.035 260.584C164.373 260.211 163.851 259.683 163.467 259C163.093 258.307 162.907 257.507 162.907 256.6C162.907 255.704 163.099 254.915 163.483 254.232C163.877 253.539 164.411 253.011 165.083 252.648C165.755 252.275 166.507 252.088 167.339 252.088C168.171 252.088 168.923 252.275 169.595 252.648C170.267 253.011 170.795 253.533 171.179 254.216C171.573 254.899 171.771 255.693 171.771 256.6C171.771 257.507 171.568 258.307 171.163 259C170.768 259.683 170.229 260.211 169.547 260.584C168.864 260.957 168.107 261.144 167.275 261.144ZM167.275 259.864C167.797 259.864 168.288 259.741 168.747 259.496C169.205 259.251 169.573 258.883 169.851 258.392C170.139 257.901 170.283 257.304 170.283 256.6C170.283 255.896 170.144 255.299 169.867 254.808C169.589 254.317 169.227 253.955 168.779 253.72C168.331 253.475 167.845 253.352 167.323 253.352C166.789 253.352 166.299 253.475 165.851 253.72C165.413 253.955 165.061 254.317 164.795 254.808C164.528 255.299 164.395 255.896 164.395 256.6C164.395 257.315 164.523 257.917 164.779 258.408C165.045 258.899 165.397 259.267 165.835 259.512C166.272 259.747 166.752 259.864 167.275 259.864ZM181.685 250.744C182.869 250.744 183.898 250.968 184.773 251.416C185.648 251.864 186.32 252.493 186.789 253.304C187.258 254.104 187.493 255.032 187.493 256.088C187.493 256.931 187.354 257.741 187.077 258.52C186.8 259.288 186.394 259.912 185.861 260.392C185.338 260.872 184.725 261.112 184.021 261.112C183.488 261.112 183.077 260.979 182.789 260.712C182.501 260.445 182.336 260.083 182.293 259.624C181.962 260.083 181.541 260.445 181.029 260.712C180.528 260.979 179.994 261.112 179.429 261.112C178.618 261.112 177.978 260.867 177.509 260.376C177.05 259.875 176.821 259.203 176.821 258.36C176.821 257.56 176.986 256.813 177.317 256.12C177.658 255.427 178.128 254.872 178.725 254.456C179.322 254.029 180 253.816 180.757 253.816C181.77 253.816 182.453 254.2 182.805 254.968L182.981 253.976H184.245L183.445 258.6C183.413 258.803 183.397 258.989 183.397 259.16C183.397 259.8 183.68 260.12 184.245 260.12C184.672 260.12 185.04 259.917 185.349 259.512C185.669 259.107 185.909 258.6 186.069 257.992C186.229 257.373 186.309 256.765 186.309 256.168C186.309 254.771 185.888 253.688 185.045 252.92C184.213 252.152 183.034 251.768 181.509 251.768C180.24 251.768 179.093 252.077 178.069 252.696C177.056 253.304 176.261 254.141 175.685 255.208C175.109 256.275 174.821 257.453 174.821 258.744C174.81 260.152 175.232 261.235 176.085 261.992C176.938 262.76 178.122 263.144 179.637 263.144C180.64 263.144 181.525 262.963 182.293 262.6L182.485 263.592C181.536 263.987 180.49 264.184 179.349 264.184C178.208 264.184 177.2 263.965 176.325 263.528C175.461 263.101 174.789 262.483 174.309 261.672C173.84 260.872 173.605 259.939 173.605 258.872C173.605 257.368 173.952 255.997 174.645 254.76C175.338 253.512 176.298 252.531 177.525 251.816C178.762 251.101 180.149 250.744 181.685 250.744ZM179.861 259.976C180.341 259.976 180.784 259.837 181.189 259.56C181.594 259.272 181.914 258.888 182.149 258.408C182.384 257.917 182.501 257.384 182.501 256.808C182.501 256.253 182.346 255.805 182.037 255.464C181.738 255.112 181.312 254.936 180.757 254.936C180.245 254.936 179.792 255.091 179.397 255.4C179.013 255.699 178.714 256.099 178.501 256.6C178.288 257.091 178.181 257.603 178.181 258.136C178.181 258.701 178.325 259.149 178.613 259.48C178.901 259.811 179.317 259.976 179.861 259.976ZM193.504 252.088C194.262 252.088 194.923 252.253 195.488 252.584C196.064 252.915 196.491 253.331 196.768 253.832V252.232H198.24V261.192C198.24 261.992 198.07 262.701 197.728 263.32C197.387 263.949 196.896 264.44 196.256 264.792C195.627 265.144 194.891 265.32 194.048 265.32C192.896 265.32 191.936 265.048 191.168 264.504C190.4 263.96 189.947 263.219 189.808 262.28H191.248C191.408 262.813 191.739 263.24 192.24 263.56C192.742 263.891 193.344 264.056 194.048 264.056C194.848 264.056 195.499 263.805 196 263.304C196.512 262.803 196.768 262.099 196.768 261.192V259.352C196.48 259.864 196.054 260.291 195.488 260.632C194.923 260.973 194.262 261.144 193.504 261.144C192.726 261.144 192.016 260.952 191.376 260.568C190.747 260.184 190.251 259.645 189.888 258.952C189.526 258.259 189.344 257.469 189.344 256.584C189.344 255.688 189.526 254.904 189.888 254.232C190.251 253.549 190.747 253.021 191.376 252.648C192.016 252.275 192.726 252.088 193.504 252.088ZM196.768 256.6C196.768 255.939 196.635 255.363 196.368 254.872C196.102 254.381 195.739 254.008 195.28 253.752C194.832 253.485 194.336 253.352 193.792 253.352C193.248 253.352 192.752 253.48 192.304 253.736C191.856 253.992 191.499 254.365 191.232 254.856C190.966 255.347 190.832 255.923 190.832 256.584C190.832 257.256 190.966 257.843 191.232 258.344C191.499 258.835 191.856 259.213 192.304 259.48C192.752 259.736 193.248 259.864 193.792 259.864C194.336 259.864 194.832 259.736 195.28 259.48C195.739 259.213 196.102 258.835 196.368 258.344C196.635 257.843 196.768 257.261 196.768 256.6ZM211.245 252.072C211.927 252.072 212.535 252.216 213.069 252.504C213.602 252.781 214.023 253.203 214.333 253.768C214.642 254.333 214.797 255.021 214.797 255.832V261H213.357V256.04C213.357 255.165 213.138 254.499 212.701 254.04C212.274 253.571 211.693 253.336 210.957 253.336C210.199 253.336 209.597 253.581 209.149 254.072C208.701 254.552 208.477 255.251 208.477 256.168V261H207.037V256.04C207.037 255.165 206.818 254.499 206.381 254.04C205.954 253.571 205.373 253.336 204.637 253.336C203.879 253.336 203.277 253.581 202.829 254.072C202.381 254.552 202.157 255.251 202.157 256.168V261H200.701V252.232H202.157V253.496C202.445 253.037 202.829 252.685 203.309 252.44C203.799 252.195 204.338 252.072 204.925 252.072C205.661 252.072 206.311 252.237 206.877 252.568C207.442 252.899 207.863 253.384 208.141 254.024C208.386 253.405 208.791 252.925 209.357 252.584C209.922 252.243 210.551 252.072 211.245 252.072ZM216.641 256.584C216.641 255.688 216.822 254.904 217.185 254.232C217.548 253.549 218.044 253.021 218.673 252.648C219.313 252.275 220.022 252.088 220.801 252.088C221.569 252.088 222.236 252.253 222.801 252.584C223.366 252.915 223.788 253.331 224.065 253.832V252.232H225.537V261H224.065V259.368C223.777 259.88 223.345 260.307 222.769 260.648C222.204 260.979 221.542 261.144 220.785 261.144C220.006 261.144 219.302 260.952 218.673 260.568C218.044 260.184 217.548 259.645 217.185 258.952C216.822 258.259 216.641 257.469 216.641 256.584ZM224.065 256.6C224.065 255.939 223.932 255.363 223.665 254.872C223.398 254.381 223.036 254.008 222.577 253.752C222.129 253.485 221.633 253.352 221.089 253.352C220.545 253.352 220.049 253.48 219.601 253.736C219.153 253.992 218.796 254.365 218.529 254.856C218.262 255.347 218.129 255.923 218.129 256.584C218.129 257.256 218.262 257.843 218.529 258.344C218.796 258.835 219.153 259.213 219.601 259.48C220.049 259.736 220.545 259.864 221.089 259.864C221.633 259.864 222.129 259.736 222.577 259.48C223.036 259.213 223.398 258.835 223.665 258.344C223.932 257.843 224.065 257.261 224.065 256.6ZM228.75 250.808C228.472 250.808 228.238 250.712 228.046 250.52C227.854 250.328 227.758 250.093 227.758 249.816C227.758 249.539 227.854 249.304 228.046 249.112C228.238 248.92 228.472 248.824 228.75 248.824C229.016 248.824 229.24 248.92 229.422 249.112C229.614 249.304 229.71 249.539 229.71 249.816C229.71 250.093 229.614 250.328 229.422 250.52C229.24 250.712 229.016 250.808 228.75 250.808ZM229.454 252.232V261H227.998V252.232H229.454ZM233.391 249.16V261H231.935V249.16H233.391ZM236.337 261.096C236.059 261.096 235.825 261 235.633 260.808C235.441 260.616 235.345 260.381 235.345 260.104C235.345 259.827 235.441 259.592 235.633 259.4C235.825 259.208 236.059 259.112 236.337 259.112C236.603 259.112 236.827 259.208 237.009 259.4C237.201 259.592 237.297 259.827 237.297 260.104C237.297 260.381 237.201 260.616 237.009 260.808C236.827 261 236.603 261.096 236.337 261.096ZM238.688 256.6C238.688 255.693 238.869 254.904 239.232 254.232C239.595 253.549 240.096 253.021 240.736 252.648C241.387 252.275 242.128 252.088 242.96 252.088C244.037 252.088 244.923 252.349 245.616 252.872C246.32 253.395 246.784 254.12 247.008 255.048H245.44C245.291 254.515 244.997 254.093 244.56 253.784C244.133 253.475 243.6 253.32 242.96 253.32C242.128 253.32 241.456 253.608 240.944 254.184C240.432 254.749 240.176 255.555 240.176 256.6C240.176 257.656 240.432 258.472 240.944 259.048C241.456 259.624 242.128 259.912 242.96 259.912C243.6 259.912 244.133 259.763 244.56 259.464C244.987 259.165 245.28 258.739 245.44 258.184H247.008C246.773 259.08 246.304 259.8 245.6 260.344C244.896 260.877 244.016 261.144 242.96 261.144C242.128 261.144 241.387 260.957 240.736 260.584C240.096 260.211 239.595 259.683 239.232 259C238.869 258.317 238.688 257.517 238.688 256.6ZM252.775 261.144C251.953 261.144 251.207 260.957 250.535 260.584C249.873 260.211 249.351 259.683 248.967 259C248.593 258.307 248.407 257.507 248.407 256.6C248.407 255.704 248.599 254.915 248.983 254.232C249.377 253.539 249.911 253.011 250.583 252.648C251.255 252.275 252.007 252.088 252.839 252.088C253.671 252.088 254.423 252.275 255.095 252.648C255.767 253.011 256.295 253.533 256.679 254.216C257.073 254.899 257.271 255.693 257.271 256.6C257.271 257.507 257.068 258.307 256.663 259C256.268 259.683 255.729 260.211 255.047 260.584C254.364 260.957 253.607 261.144 252.775 261.144ZM252.775 259.864C253.297 259.864 253.788 259.741 254.247 259.496C254.705 259.251 255.073 258.883 255.351 258.392C255.639 257.901 255.783 257.304 255.783 256.6C255.783 255.896 255.644 255.299 255.367 254.808C255.089 254.317 254.727 253.955 254.279 253.72C253.831 253.475 253.345 253.352 252.823 253.352C252.289 253.352 251.799 253.475 251.351 253.72C250.913 253.955 250.561 254.317 250.295 254.808C250.028 255.299 249.895 255.896 249.895 256.6C249.895 257.315 250.023 257.917 250.279 258.408C250.545 258.899 250.897 259.267 251.335 259.512C251.772 259.747 252.252 259.864 252.775 259.864ZM269.729 252.072C270.412 252.072 271.02 252.216 271.553 252.504C272.086 252.781 272.508 253.203 272.817 253.768C273.126 254.333 273.281 255.021 273.281 255.832V261H271.841V256.04C271.841 255.165 271.622 254.499 271.185 254.04C270.758 253.571 270.177 253.336 269.441 253.336C268.684 253.336 268.081 253.581 267.633 254.072C267.185 254.552 266.961 255.251 266.961 256.168V261H265.521V256.04C265.521 255.165 265.302 254.499 264.865 254.04C264.438 253.571 263.857 253.336 263.121 253.336C262.364 253.336 261.761 253.581 261.313 254.072C260.865 254.552 260.641 255.251 260.641 256.168V261H259.185V252.232H260.641V253.496C260.929 253.037 261.313 252.685 261.793 252.44C262.284 252.195 262.822 252.072 263.409 252.072C264.145 252.072 264.796 252.237 265.361 252.568C265.926 252.899 266.348 253.384 266.625 254.024C266.87 253.405 267.276 252.925 267.841 252.584C268.406 252.243 269.036 252.072 269.729 252.072Z" fill="white"/>
<path d="M134.552 180.768H131.144V184.224H129.784V180.768H126.392V179.536H129.784V176.064H131.144V179.536H134.552V180.768ZM144.034 175.568L139.586 186H138.114L142.626 175.712H136.45V174.464H144.034V175.568ZM151.786 182.896C151.893 183.504 152.138 183.973 152.522 184.304C152.917 184.635 153.445 184.8 154.106 184.8C154.991 184.8 155.642 184.453 156.058 183.76C156.485 183.067 156.687 181.899 156.666 180.256C156.442 180.736 156.069 181.115 155.546 181.392C155.023 181.659 154.442 181.792 153.802 181.792C153.087 181.792 152.447 181.648 151.882 181.36C151.327 181.061 150.89 180.629 150.57 180.064C150.25 179.499 150.09 178.816 150.09 178.016C150.09 176.875 150.421 175.957 151.082 175.264C151.743 174.56 152.682 174.208 153.898 174.208C155.391 174.208 156.437 174.693 157.034 175.664C157.642 176.635 157.946 178.08 157.946 180C157.946 181.344 157.823 182.453 157.578 183.328C157.343 184.203 156.938 184.869 156.362 185.328C155.797 185.787 155.018 186.016 154.026 186.016C152.938 186.016 152.09 185.723 151.482 185.136C150.874 184.549 150.527 183.803 150.442 182.896H151.786ZM154.042 180.56C154.757 180.56 155.343 180.341 155.802 179.904C156.261 179.456 156.49 178.853 156.49 178.096C156.49 177.296 156.266 176.651 155.818 176.16C155.37 175.669 154.741 175.424 153.93 175.424C153.183 175.424 152.586 175.659 152.138 176.128C151.701 176.597 151.482 177.216 151.482 177.984C151.482 178.763 151.701 179.387 152.138 179.856C152.575 180.325 153.21 180.56 154.042 180.56ZM159.992 180.096C159.992 178.261 160.291 176.832 160.888 175.808C161.485 174.773 162.531 174.256 164.024 174.256C165.507 174.256 166.547 174.773 167.144 175.808C167.741 176.832 168.04 178.261 168.04 180.096C168.04 181.963 167.741 183.413 167.144 184.448C166.547 185.483 165.507 186 164.024 186C162.531 186 161.485 185.483 160.888 184.448C160.291 183.413 159.992 181.963 159.992 180.096ZM166.6 180.096C166.6 179.168 166.536 178.384 166.408 177.744C166.291 177.093 166.04 176.571 165.656 176.176C165.283 175.781 164.739 175.584 164.024 175.584C163.299 175.584 162.744 175.781 162.36 176.176C161.987 176.571 161.736 177.093 161.608 177.744C161.491 178.384 161.432 179.168 161.432 180.096C161.432 181.056 161.491 181.861 161.608 182.512C161.736 183.163 161.987 183.685 162.36 184.08C162.744 184.475 163.299 184.672 164.024 184.672C164.739 184.672 165.283 184.475 165.656 184.08C166.04 183.685 166.291 183.163 166.408 182.512C166.536 181.861 166.6 181.056 166.6 180.096ZM177.159 175.568L172.711 186H171.239L175.751 175.712H169.575V174.464H177.159V175.568ZM184.911 182.896C185.018 183.504 185.263 183.973 185.647 184.304C186.042 184.635 186.57 184.8 187.231 184.8C188.116 184.8 188.767 184.453 189.183 183.76C189.61 183.067 189.812 181.899 189.791 180.256C189.567 180.736 189.194 181.115 188.671 181.392C188.148 181.659 187.567 181.792 186.927 181.792C186.212 181.792 185.572 181.648 185.007 181.36C184.452 181.061 184.015 180.629 183.695 180.064C183.375 179.499 183.215 178.816 183.215 178.016C183.215 176.875 183.546 175.957 184.207 175.264C184.868 174.56 185.807 174.208 187.023 174.208C188.516 174.208 189.562 174.693 190.159 175.664C190.767 176.635 191.071 178.08 191.071 180C191.071 181.344 190.948 182.453 190.703 183.328C190.468 184.203 190.063 184.869 189.487 185.328C188.922 185.787 188.143 186.016 187.151 186.016C186.063 186.016 185.215 185.723 184.607 185.136C183.999 184.549 183.652 183.803 183.567 182.896H184.911ZM187.167 180.56C187.882 180.56 188.468 180.341 188.927 179.904C189.386 179.456 189.615 178.853 189.615 178.096C189.615 177.296 189.391 176.651 188.943 176.16C188.495 175.669 187.866 175.424 187.055 175.424C186.308 175.424 185.711 175.659 185.263 176.128C184.826 176.597 184.607 177.216 184.607 177.984C184.607 178.763 184.826 179.387 185.263 179.856C185.7 180.325 186.335 180.56 187.167 180.56ZM193.117 180.096C193.117 178.261 193.416 176.832 194.013 175.808C194.61 174.773 195.656 174.256 197.149 174.256C198.632 174.256 199.672 174.773 200.269 175.808C200.866 176.832 201.165 178.261 201.165 180.096C201.165 181.963 200.866 183.413 200.269 184.448C199.672 185.483 198.632 186 197.149 186C195.656 186 194.61 185.483 194.013 184.448C193.416 183.413 193.117 181.963 193.117 180.096ZM199.725 180.096C199.725 179.168 199.661 178.384 199.533 177.744C199.416 177.093 199.165 176.571 198.781 176.176C198.408 175.781 197.864 175.584 197.149 175.584C196.424 175.584 195.869 175.781 195.485 176.176C195.112 176.571 194.861 177.093 194.733 177.744C194.616 178.384 194.557 179.168 194.557 180.096C194.557 181.056 194.616 181.861 194.733 182.512C194.861 183.163 195.112 183.685 195.485 184.08C195.869 184.475 196.424 184.672 197.149 184.672C197.864 184.672 198.408 184.475 198.781 184.08C199.165 183.685 199.416 183.163 199.533 182.512C199.661 181.861 199.725 181.056 199.725 180.096ZM205.276 179.984C204.679 179.749 204.22 179.408 203.9 178.96C203.58 178.512 203.42 177.968 203.42 177.328C203.42 176.752 203.564 176.235 203.852 175.776C204.14 175.307 204.567 174.939 205.132 174.672C205.708 174.395 206.401 174.256 207.212 174.256C208.023 174.256 208.711 174.395 209.276 174.672C209.852 174.939 210.284 175.307 210.572 175.776C210.871 176.235 211.02 176.752 211.02 177.328C211.02 177.947 210.855 178.491 210.524 178.96C210.193 179.419 209.74 179.76 209.164 179.984C209.825 180.187 210.348 180.544 210.732 181.056C211.127 181.557 211.324 182.165 211.324 182.88C211.324 183.573 211.153 184.181 210.812 184.704C210.471 185.216 209.985 185.616 209.356 185.904C208.737 186.181 208.023 186.32 207.212 186.32C206.401 186.32 205.687 186.181 205.068 185.904C204.46 185.616 203.985 185.216 203.644 184.704C203.303 184.181 203.132 183.573 203.132 182.88C203.132 182.165 203.324 181.552 203.708 181.04C204.092 180.528 204.615 180.176 205.276 179.984ZM209.612 177.504C209.612 176.853 209.399 176.352 208.972 176C208.545 175.648 207.959 175.472 207.212 175.472C206.476 175.472 205.895 175.648 205.468 176C205.041 176.352 204.828 176.859 204.828 177.52C204.828 178.117 205.047 178.597 205.484 178.96C205.932 179.323 206.508 179.504 207.212 179.504C207.927 179.504 208.503 179.323 208.94 178.96C209.388 178.587 209.612 178.101 209.612 177.504ZM207.212 180.624C206.423 180.624 205.777 180.811 205.276 181.184C204.775 181.547 204.524 182.096 204.524 182.832C204.524 183.515 204.764 184.064 205.244 184.48C205.735 184.896 206.391 185.104 207.212 185.104C208.033 185.104 208.684 184.896 209.164 184.48C209.644 184.064 209.884 183.515 209.884 182.832C209.884 182.117 209.639 181.573 209.148 181.2C208.657 180.816 208.012 180.624 207.212 180.624ZM217.171 183.424V182.32L222.787 174.544H224.531V182.16H226.131V183.424H224.531V186H223.091V183.424H217.171ZM223.155 176.064L218.851 182.16H223.155V176.064ZM234.706 175.568L230.258 186H228.786L233.298 175.712H227.122V174.464H234.706V175.568ZM240.202 175.76V174.432H243.21V186H241.738V175.76H240.202ZM245.535 184.832C246.889 183.744 247.951 182.853 248.719 182.16C249.487 181.456 250.132 180.725 250.655 179.968C251.188 179.2 251.455 178.448 251.455 177.712C251.455 177.019 251.284 176.475 250.943 176.08C250.612 175.675 250.073 175.472 249.327 175.472C248.601 175.472 248.036 175.701 247.631 176.16C247.236 176.608 247.023 177.211 246.991 177.968H245.583C245.625 176.773 245.988 175.851 246.671 175.2C247.353 174.549 248.233 174.224 249.311 174.224C250.409 174.224 251.279 174.528 251.919 175.136C252.569 175.744 252.895 176.581 252.895 177.648C252.895 178.533 252.628 179.397 252.095 180.24C251.572 181.072 250.975 181.808 250.303 182.448C249.631 183.077 248.772 183.813 247.727 184.656H253.231V185.872H245.535V184.832Z" fill="white"/>
</svg>
