<svg width="392" height="171" viewBox="0 0 392 171" fill="none" xmlns="http://www.w3.org/2000/svg">
<path d="M76.857 64.0976L77.3132 62.6687L76.857 64.0976ZM137.775 83.5473L138.231 82.1184L137.775 83.5473ZM149.063 83.8055L148.673 82.3572L149.063 83.8055ZM177.942 76.0209L178.332 77.4692L178.332 77.4692L177.942 76.0209ZM36.0922 102.812L35.2374 101.579L36.0922 102.812ZM42.6696 95.1461L44.0178 95.8037L42.6696 95.1461ZM52.7986 74.3816L54.1468 75.0393L52.7986 74.3816ZM295.15 81.9094L296.001 80.674L296.001 80.674L295.15 81.9094ZM329.253 105.395L330.104 104.16L329.253 105.395ZM347.679 107.627L347.148 106.225L347.679 107.627ZM390.749 92.4536C391.089 91.6983 390.753 90.8101 389.998 90.4697L377.69 84.9226C376.935 84.5822 376.046 84.9185 375.706 85.6738C375.366 86.4291 375.702 87.3173 376.457 87.6577L387.397 92.5884L382.467 103.529C382.126 104.284 382.462 105.172 383.218 105.512C383.973 105.853 384.861 105.517 385.202 104.761L390.749 92.4536ZM223.317 109.424L224.052 110.732L223.317 109.424ZM240.381 99.8373L239.647 98.5295L240.381 99.8373ZM274.011 80.9444L273.276 79.6366L274.011 80.9444ZM198.73 93.4978L197.236 93.3619L197.236 93.362L198.73 93.4978ZM76.4008 65.5266L137.319 84.9763L138.231 82.1184L77.3132 62.6687L76.4008 65.5266ZM149.454 85.2539L178.332 77.4692L177.552 74.5726L148.673 82.3572L149.454 85.2539ZM10.2363 122.57L36.9471 104.044L35.2374 101.579L8.52664 120.105L10.2363 122.57ZM44.0178 95.8037L54.1468 75.0393L51.4505 73.724L41.3215 94.4885L44.0178 95.8037ZM294.299 83.1447L328.402 106.631L330.104 104.16L296.001 80.674L294.299 83.1447ZM348.21 109.03L389.912 93.2401L388.85 90.4345L347.148 106.225L348.21 109.03ZM224.052 110.732L241.116 101.145L239.647 98.5295L222.582 108.116L224.052 110.732ZM241.116 101.145L274.745 82.2521L273.276 79.6366L239.647 98.5295L241.116 101.145ZM328.402 106.631C334.211 110.631 341.613 111.528 348.21 109.03L347.148 106.225C341.472 108.374 335.102 107.602 330.104 104.16L328.402 106.631ZM36.9471 104.044C39.9702 101.948 42.4048 99.1104 44.0178 95.8037L41.3215 94.4885C39.9335 97.3337 37.8387 99.7752 35.2374 101.579L36.9471 104.044ZM296.001 80.674C289.244 76.0208 280.428 75.6183 273.276 79.6366L274.745 82.2521C280.9 78.7945 288.486 79.1408 294.299 83.1447L296.001 80.674ZM178.332 77.4692C188.448 74.7424 198.185 82.9284 197.236 93.3619L200.224 93.6336C201.362 81.1201 189.684 71.3022 177.552 74.5726L178.332 77.4692ZM137.319 84.9763C141.253 86.2324 145.466 86.3288 149.454 85.2539L148.673 82.3572C145.242 83.2822 141.617 83.1993 138.231 82.1184L137.319 84.9763ZM197.236 93.362C195.921 107.837 211.38 117.851 224.052 110.732L222.582 108.116C212.017 114.052 199.127 105.702 200.224 93.6336L197.236 93.362ZM77.3132 62.6687C67.1432 59.4216 56.131 64.1289 51.4505 73.724L54.1468 75.0393C58.1742 66.783 67.6498 62.7326 76.4008 65.5266L77.3132 62.6687Z" fill="black"/>
<path d="M76.857 73.0976L77.3132 71.6687L76.857 73.0976ZM137.775 92.5473L138.231 91.1184L137.775 92.5473ZM149.063 92.8055L148.673 91.3572L149.063 92.8055ZM177.942 85.0209L178.332 86.4692L178.332 86.4692L177.942 85.0209ZM36.0922 111.812L35.2374 110.579L36.0922 111.812ZM42.6696 104.146L44.0178 104.804L42.6696 104.146ZM52.7986 83.3816L54.1468 84.0393L52.7986 83.3816ZM295.15 90.9094L296.001 89.674L296.001 89.674L295.15 90.9094ZM329.253 114.395L330.104 113.16L329.253 114.395ZM347.679 116.627L347.148 115.225L347.679 116.627ZM390.749 101.454C391.089 100.698 390.753 99.8101 389.998 99.4697L377.69 93.9226C376.935 93.5822 376.046 93.9185 375.706 94.6738C375.366 95.4291 375.702 96.3173 376.457 96.6577L387.397 101.588L382.467 112.529C382.126 113.284 382.462 114.172 383.218 114.512C383.973 114.853 384.861 114.517 385.202 113.761L390.749 101.454ZM223.317 118.424L224.052 119.732L223.317 118.424ZM240.381 108.837L239.647 107.53L240.381 108.837ZM274.011 89.9444L273.276 88.6366L274.011 89.9444ZM198.73 102.498L197.236 102.362L197.236 102.362L198.73 102.498ZM76.4008 74.5266L137.319 93.9763L138.231 91.1184L77.3132 71.6687L76.4008 74.5266ZM149.454 94.2539L178.332 86.4692L177.552 83.5726L148.673 91.3572L149.454 94.2539ZM10.2363 131.57L36.9471 113.044L35.2374 110.579L8.52664 129.105L10.2363 131.57ZM44.0178 104.804L54.1468 84.0393L51.4505 82.724L41.3215 103.488L44.0178 104.804ZM294.299 92.1447L328.402 115.631L330.104 113.16L296.001 89.674L294.299 92.1447ZM348.21 118.03L389.912 102.24L388.85 99.4345L347.148 115.225L348.21 118.03ZM224.052 119.732L241.116 110.145L239.647 107.53L222.582 117.116L224.052 119.732ZM241.116 110.145L274.745 91.2521L273.276 88.6366L239.647 107.53L241.116 110.145ZM328.402 115.631C334.211 119.631 341.613 120.528 348.21 118.03L347.148 115.225C341.472 117.374 335.102 116.602 330.104 113.16L328.402 115.631ZM36.9471 113.044C39.9702 110.948 42.4048 108.11 44.0178 104.804L41.3215 103.488C39.9335 106.334 37.8387 108.775 35.2374 110.579L36.9471 113.044ZM296.001 89.674C289.244 85.0208 280.428 84.6183 273.276 88.6366L274.745 91.2521C280.9 87.7945 288.486 88.1408 294.299 92.1447L296.001 89.674ZM178.332 86.4692C188.448 83.7424 198.185 91.9284 197.236 102.362L200.224 102.634C201.362 90.1201 189.684 80.3022 177.552 83.5726L178.332 86.4692ZM137.319 93.9763C141.253 95.2324 145.466 95.3288 149.454 94.2539L148.673 91.3572C145.242 92.2822 141.617 92.1993 138.231 91.1184L137.319 93.9763ZM197.236 102.362C195.921 116.837 211.38 126.851 224.052 119.732L222.582 117.116C212.017 123.052 199.127 114.702 200.224 102.634L197.236 102.362ZM77.3132 71.6687C67.1432 68.4216 56.131 73.1289 51.4505 82.724L54.1468 84.0393C58.1742 75.783 67.6498 71.7326 76.4008 74.5266L77.3132 71.6687Z" fill="black"/>
<path d="M76.857 82.0976L77.3132 80.6687L76.857 82.0976ZM137.775 101.547L138.231 100.118L137.775 101.547ZM149.063 101.806L148.673 100.357L149.063 101.806ZM177.942 94.0209L178.332 95.4692L178.332 95.4692L177.942 94.0209ZM36.0922 120.812L35.2374 119.579L36.0922 120.812ZM42.6696 113.146L44.0178 113.804L42.6696 113.146ZM52.7986 92.3816L54.1468 93.0393L52.7986 92.3816ZM295.15 99.9094L296.001 98.674L296.001 98.674L295.15 99.9094ZM329.253 123.395L330.104 122.16L329.253 123.395ZM347.679 125.627L347.148 124.225L347.679 125.627ZM390.749 110.454C391.089 109.698 390.753 108.81 389.998 108.47L377.69 102.923C376.935 102.582 376.046 102.919 375.706 103.674C375.366 104.429 375.702 105.317 376.457 105.658L387.397 110.588L382.467 121.529C382.126 122.284 382.462 123.172 383.218 123.512C383.973 123.853 384.861 123.517 385.202 122.761L390.749 110.454ZM223.317 127.424L224.052 128.732L223.317 127.424ZM240.381 117.837L239.647 116.53L240.381 117.837ZM274.011 98.9444L273.276 97.6366L274.011 98.9444ZM198.73 111.498L197.236 111.362L197.236 111.362L198.73 111.498ZM76.4008 83.5266L137.319 102.976L138.231 100.118L77.3132 80.6687L76.4008 83.5266ZM149.454 103.254L178.332 95.4692L177.552 92.5726L148.673 100.357L149.454 103.254ZM10.2363 140.57L36.9471 122.044L35.2374 119.579L8.52664 138.105L10.2363 140.57ZM44.0178 113.804L54.1468 93.0393L51.4505 91.724L41.3215 112.488L44.0178 113.804ZM294.299 101.145L328.402 124.631L330.104 122.16L296.001 98.674L294.299 101.145ZM348.21 127.03L389.912 111.24L388.85 108.434L347.148 124.225L348.21 127.03ZM224.052 128.732L241.116 119.145L239.647 116.53L222.582 126.116L224.052 128.732ZM241.116 119.145L274.745 100.252L273.276 97.6366L239.647 116.53L241.116 119.145ZM328.402 124.631C334.211 128.631 341.613 129.528 348.21 127.03L347.148 124.225C341.472 126.374 335.102 125.602 330.104 122.16L328.402 124.631ZM36.9471 122.044C39.9702 119.948 42.4048 117.11 44.0178 113.804L41.3215 112.488C39.9335 115.334 37.8387 117.775 35.2374 119.579L36.9471 122.044ZM296.001 98.674C289.244 94.0208 280.428 93.6183 273.276 97.6366L274.745 100.252C280.9 96.7945 288.486 97.1408 294.299 101.145L296.001 98.674ZM178.332 95.4692C188.448 92.7424 198.185 100.928 197.236 111.362L200.224 111.634C201.362 99.1201 189.684 89.3022 177.552 92.5726L178.332 95.4692ZM137.319 102.976C141.253 104.232 145.466 104.329 149.454 103.254L148.673 100.357C145.242 101.282 141.617 101.199 138.231 100.118L137.319 102.976ZM197.236 111.362C195.921 125.837 211.38 135.851 224.052 128.732L222.582 126.116C212.017 132.052 199.127 123.702 200.224 111.634L197.236 111.362ZM77.3132 80.6687C67.1432 77.4216 56.131 82.1289 51.4505 91.724L54.1468 93.0393C58.1742 84.783 67.6498 80.7326 76.4008 83.5266L77.3132 80.6687Z" fill="black"/>
<path d="M76.4758 55.7603L76.932 54.3314L76.4758 55.7603ZM137.394 75.2101L137.85 73.7811L137.394 75.2101ZM148.682 75.4683L148.292 74.02L148.682 75.4683ZM177.561 67.6836L177.951 69.1319L177.951 69.1319L177.561 67.6836ZM35.711 94.4746L34.8562 93.2421L35.711 94.4746ZM42.2884 86.8088L43.6365 87.4665L42.2884 86.8088ZM52.4174 66.0444L53.7655 66.702L52.4174 66.0444ZM294.769 73.5721L295.62 72.3367L295.62 72.3367L294.769 73.5721ZM328.872 97.0579L329.723 95.8225L328.872 97.0579ZM347.298 99.2902L346.766 97.8874L347.298 99.2902ZM390.367 84.1163C390.708 83.3611 390.372 82.4729 389.616 82.1325L377.309 76.5853C376.553 76.2449 375.665 76.5812 375.325 77.3365C374.984 78.0918 375.321 78.98 376.076 79.3204L387.016 84.2512L382.085 95.1913C381.745 95.9466 382.081 96.8348 382.836 97.1752C383.592 97.5156 384.48 97.1793 384.82 96.424L390.367 84.1163ZM222.936 101.087L223.67 102.394L222.936 101.087ZM240 91.5L239.265 90.1922L240 91.5ZM273.629 72.6071L272.895 71.2994L273.629 72.6071ZM198.349 85.1605L196.855 85.0247L196.855 85.0247L198.349 85.1605ZM76.0196 57.1893L136.938 76.639L137.85 73.7811L76.932 54.3314L76.0196 57.1893ZM149.073 76.9166L177.951 69.1319L177.17 66.2353L148.292 74.02L149.073 76.9166ZM9.85511 114.232L36.5659 95.7072L34.8562 93.2421L8.14542 111.767L9.85511 114.232ZM43.6365 87.4665L53.7655 66.702L51.0692 65.3867L40.9402 86.1512L43.6365 87.4665ZM293.918 74.8075L328.021 98.2933L329.723 95.8225L295.62 72.3367L293.918 74.8075ZM347.829 100.693L389.531 84.9028L388.469 82.0972L346.766 97.8874L347.829 100.693ZM223.67 102.394L240.735 92.8078L239.265 90.1922L222.201 99.779L223.67 102.394ZM240.735 92.8078L274.364 73.9149L272.895 71.2994L239.265 90.1922L240.735 92.8078ZM328.021 98.2933C333.83 102.294 341.232 103.191 347.829 100.693L346.766 97.8874C341.09 100.037 334.721 99.265 329.723 95.8225L328.021 98.2933ZM36.5659 95.7072C39.589 93.6105 42.0235 90.7731 43.6365 87.4665L40.9402 86.1512C39.5523 88.9964 37.4575 91.4379 34.8562 93.2421L36.5659 95.7072ZM295.62 72.3367C288.863 67.6835 280.047 67.2811 272.895 71.2994L274.364 73.9149C280.519 70.4573 288.104 70.8035 293.918 74.8075L295.62 72.3367ZM177.951 69.1319C188.067 66.4051 197.804 74.5911 196.855 85.0247L199.843 85.2963C200.98 72.7828 189.302 62.9649 177.17 66.2353L177.951 69.1319ZM136.938 76.639C140.872 77.8952 145.085 77.9915 149.073 76.9166L148.292 74.02C144.861 74.9449 141.235 74.862 137.85 73.7811L136.938 76.639ZM196.855 85.0247C195.539 99.4995 210.999 109.513 223.67 102.394L222.201 99.779C211.635 105.715 198.746 97.3652 199.843 85.2963L196.855 85.0247ZM76.932 54.3314C66.762 51.0844 55.7498 55.7917 51.0692 65.3867L53.7655 66.702C57.793 58.4458 67.2686 54.3953 76.0196 57.1893L76.932 54.3314Z" fill="black"/>
</svg>
