<svg width="653" height="697" viewBox="0 0 653 697" fill="none" xmlns="http://www.w3.org/2000/svg">
<path d="M134.832 74L127.722 63.77L130.872 61.82L139.242 74H134.832ZM120.942 74V53H124.782V74H120.942ZM123.612 65.15V61.79H130.692V65.15H123.612ZM131.232 63.95L127.662 63.47L134.832 53H138.972L131.232 63.95ZM148.404 74.21C146.764 74.21 145.304 73.86 144.024 73.16C142.744 72.44 141.734 71.46 140.994 70.22C140.254 68.98 139.884 67.57 139.884 65.99C139.884 64.39 140.254 62.98 140.994 61.76C141.734 60.52 142.744 59.55 144.024 58.85C145.304 58.15 146.764 57.8 148.404 57.8C150.064 57.8 151.534 58.15 152.814 58.85C154.114 59.55 155.124 60.51 155.844 61.73C156.584 62.95 156.954 64.37 156.954 65.99C156.954 67.57 156.584 68.98 155.844 70.22C155.124 71.46 154.114 72.44 152.814 73.16C151.534 73.86 150.064 74.21 148.404 74.21ZM148.404 71C149.324 71 150.144 70.8 150.864 70.4C151.584 70 152.144 69.42 152.544 68.66C152.964 67.9 153.174 67.01 153.174 65.99C153.174 64.95 152.964 64.06 152.544 63.32C152.144 62.56 151.584 61.98 150.864 61.58C150.144 61.18 149.334 60.98 148.434 60.98C147.514 60.98 146.694 61.18 145.974 61.58C145.274 61.98 144.714 62.56 144.294 63.32C143.874 64.06 143.664 64.95 143.664 65.99C143.664 67.01 143.874 67.9 144.294 68.66C144.714 69.42 145.274 70 145.974 70.4C146.694 70.8 147.504 71 148.404 71ZM160.659 74V57.98H164.409V64.49H172.479V57.98H176.229V74H172.479V67.67H164.409V74H160.659ZM184.584 74V60.26L185.454 61.16H178.944V57.98H193.944V61.16H187.464L188.334 60.26V74H184.584ZM206.385 74V70.76L206.175 70.07V64.4C206.175 63.3 205.845 62.45 205.185 61.85C204.525 61.23 203.525 60.92 202.185 60.92C201.285 60.92 200.395 61.06 199.515 61.34C198.655 61.62 197.925 62.01 197.325 62.51L195.855 59.78C196.715 59.12 197.735 58.63 198.915 58.31C200.115 57.97 201.355 57.8 202.635 57.8C204.955 57.8 206.745 58.36 208.005 59.48C209.285 60.58 209.925 62.29 209.925 64.61V74H206.385ZM201.345 74.21C200.145 74.21 199.095 74.01 198.195 73.61C197.295 73.19 196.595 72.62 196.095 71.9C195.615 71.16 195.375 70.33 195.375 69.41C195.375 68.51 195.585 67.7 196.005 66.98C196.445 66.26 197.155 65.69 198.135 65.27C199.115 64.85 200.415 64.64 202.035 64.64H206.685V67.13H202.305C201.025 67.13 200.165 67.34 199.725 67.76C199.285 68.16 199.065 68.66 199.065 69.26C199.065 69.94 199.335 70.48 199.875 70.88C200.415 71.28 201.165 71.48 202.125 71.48C203.045 71.48 203.865 71.27 204.585 70.85C205.325 70.43 205.855 69.81 206.175 68.99L206.805 71.24C206.445 72.18 205.795 72.91 204.855 73.43C203.935 73.95 202.765 74.21 201.345 74.21ZM226.055 74L220.265 66.32L223.325 64.43L230.465 74H226.055ZM214.565 74V57.98H218.315V74H214.565ZM217.205 67.58V64.46H222.635V67.58H217.205ZM223.685 66.44L220.175 66.02L226.055 57.98H230.075L223.685 66.44ZM236.235 74V60.26L237.105 61.16H230.595V57.98H245.595V61.16H239.115L239.985 60.26V74H236.235ZM248.315 74V57.98H252.065V64.49H260.135V57.98H263.885V74H260.135V67.67H252.065V74H248.315ZM278.631 74V70.76L278.421 70.07V64.4C278.421 63.3 278.091 62.45 277.431 61.85C276.771 61.23 275.771 60.92 274.431 60.92C273.531 60.92 272.641 61.06 271.761 61.34C270.901 61.62 270.171 62.01 269.571 62.51L268.101 59.78C268.961 59.12 269.981 58.63 271.161 58.31C272.361 57.97 273.601 57.8 274.881 57.8C277.201 57.8 278.991 58.36 280.251 59.48C281.531 60.58 282.171 62.29 282.171 64.61V74H278.631ZM273.591 74.21C272.391 74.21 271.341 74.01 270.441 73.61C269.541 73.19 268.841 72.62 268.341 71.9C267.861 71.16 267.621 70.33 267.621 69.41C267.621 68.51 267.831 67.7 268.251 66.98C268.691 66.26 269.401 65.69 270.381 65.27C271.361 64.85 272.661 64.64 274.281 64.64H278.931V67.13H274.551C273.271 67.13 272.411 67.34 271.971 67.76C271.531 68.16 271.311 68.66 271.311 69.26C271.311 69.94 271.581 70.48 272.121 70.88C272.661 71.28 273.411 71.48 274.371 71.48C275.291 71.48 276.111 71.27 276.831 70.85C277.571 70.43 278.101 69.81 278.421 68.99L279.051 71.24C278.691 72.18 278.041 72.91 277.101 73.43C276.181 73.95 275.011 74.21 273.591 74.21ZM296.981 74V68.54L297.521 69.17H292.721C290.521 69.17 288.791 68.71 287.531 67.79C286.291 66.85 285.671 65.5 285.671 63.74C285.671 61.86 286.331 60.43 287.651 59.45C288.991 58.47 290.771 57.98 292.991 57.98H300.341V74H296.981ZM285.461 74L289.781 67.88H293.621L289.481 74H285.461ZM296.981 67.34V60.14L297.521 61.13H293.111C291.951 61.13 291.051 61.35 290.411 61.79C289.791 62.21 289.481 62.9 289.481 63.86C289.481 65.66 290.651 66.56 292.991 66.56H297.521L296.981 67.34ZM314.126 74V53H317.966V67.91L329.246 53H332.876V74H329.036V59.12L317.756 74H314.126ZM338.344 74V57.98H342.094V64.49H350.164V57.98H353.914V74H350.164V67.67H342.094V74H338.344ZM369.11 74.3C369.09 74.3 369 74.3 368.84 74.3C368.7 74.3 368.56 74.3 368.42 74.3C368.3 74.3 368.22 74.3 368.18 74.3C364.8 74.26 362.18 73.53 360.32 72.11C358.46 70.67 357.53 68.62 357.53 65.96C357.53 63.32 358.46 61.3 360.32 59.9C362.18 58.5 364.83 57.78 368.27 57.74C368.31 57.74 368.39 57.74 368.51 57.74C368.65 57.74 368.78 57.74 368.9 57.74C369.04 57.74 369.12 57.74 369.14 57.74C372.6 57.74 375.29 58.45 377.21 59.87C379.15 61.27 380.12 63.3 380.12 65.96C380.12 68.64 379.15 70.7 377.21 72.14C375.29 73.58 372.59 74.3 369.11 74.3ZM368.99 71.18C370.69 71.18 372.09 70.99 373.19 70.61C374.29 70.21 375.11 69.63 375.65 68.87C376.19 68.09 376.46 67.12 376.46 65.96C376.46 64.82 376.19 63.88 375.65 63.14C375.11 62.38 374.29 61.82 373.19 61.46C372.09 61.08 370.69 60.89 368.99 60.89C368.95 60.89 368.85 60.89 368.69 60.89C368.55 60.89 368.46 60.89 368.42 60.89C366.76 60.89 365.4 61.09 364.34 61.49C363.28 61.87 362.49 62.43 361.97 63.17C361.47 63.91 361.22 64.84 361.22 65.96C361.22 67.1 361.47 68.05 361.97 68.81C362.49 69.57 363.28 70.15 364.34 70.55C365.42 70.95 366.78 71.16 368.42 71.18C368.46 71.18 368.55 71.18 368.69 71.18C368.85 71.18 368.95 71.18 368.99 71.18ZM367.04 79.82V51.74H370.58V79.82H367.04ZM390.894 74.21C389.254 74.21 387.794 73.86 386.514 73.16C385.234 72.44 384.224 71.46 383.484 70.22C382.744 68.98 382.374 67.57 382.374 65.99C382.374 64.39 382.744 62.98 383.484 61.76C384.224 60.52 385.234 59.55 386.514 58.85C387.794 58.15 389.254 57.8 390.894 57.8C392.554 57.8 394.024 58.15 395.304 58.85C396.604 59.55 397.614 60.51 398.334 61.73C399.074 62.95 399.444 64.37 399.444 65.99C399.444 67.57 399.074 68.98 398.334 70.22C397.614 71.46 396.604 72.44 395.304 73.16C394.024 73.86 392.554 74.21 390.894 74.21ZM390.894 71C391.814 71 392.634 70.8 393.354 70.4C394.074 70 394.634 69.42 395.034 68.66C395.454 67.9 395.664 67.01 395.664 65.99C395.664 64.95 395.454 64.06 395.034 63.32C394.634 62.56 394.074 61.98 393.354 61.58C392.634 61.18 391.824 60.98 390.924 60.98C390.004 60.98 389.184 61.18 388.464 61.58C387.764 61.98 387.204 62.56 386.784 63.32C386.364 64.06 386.154 64.95 386.154 65.99C386.154 67.01 386.364 67.9 386.784 68.66C387.204 69.42 387.764 70 388.464 70.4C389.184 70.8 389.994 71 390.894 71ZM412.029 74.21C410.729 74.21 409.539 73.91 408.459 73.31C407.399 72.71 406.549 71.81 405.909 70.61C405.289 69.39 404.979 67.85 404.979 65.99C404.979 64.11 405.279 62.57 405.879 61.37C406.499 60.17 407.339 59.28 408.399 58.7C409.459 58.1 410.669 57.8 412.029 57.8C413.609 57.8 414.999 58.14 416.199 58.82C417.419 59.5 418.379 60.45 419.079 61.67C419.799 62.89 420.159 64.33 420.159 65.99C420.159 67.65 419.799 69.1 419.079 70.34C418.379 71.56 417.419 72.51 416.199 73.19C414.999 73.87 413.609 74.21 412.029 74.21ZM403.149 79.82V57.98H406.719V61.76L406.599 66.02L406.899 70.28V79.82H403.149ZM411.609 71C412.509 71 413.309 70.8 414.009 70.4C414.729 70 415.299 69.42 415.719 68.66C416.139 67.9 416.349 67.01 416.349 65.99C416.349 64.95 416.139 64.06 415.719 63.32C415.299 62.56 414.729 61.98 414.009 61.58C413.309 61.18 412.509 60.98 411.609 60.98C410.709 60.98 409.899 61.18 409.179 61.58C408.459 61.98 407.889 62.56 407.469 63.32C407.049 64.06 406.839 64.95 406.839 65.99C406.839 67.01 407.049 67.9 407.469 68.66C407.889 69.42 408.459 70 409.179 70.4C409.899 70.8 410.709 71 411.609 71ZM423.891 74V57.98H427.821L434.271 69.35H432.711L439.491 57.98H443.001L443.031 74H439.641V62L440.241 62.39L434.241 72.32H432.621L426.591 62.12L427.311 61.94V74H423.891ZM457.781 74V70.76L457.571 70.07V64.4C457.571 63.3 457.241 62.45 456.581 61.85C455.921 61.23 454.921 60.92 453.581 60.92C452.681 60.92 451.791 61.06 450.911 61.34C450.051 61.62 449.321 62.01 448.721 62.51L447.251 59.78C448.111 59.12 449.131 58.63 450.311 58.31C451.511 57.97 452.751 57.8 454.031 57.8C456.351 57.8 458.141 58.36 459.401 59.48C460.681 60.58 461.321 62.29 461.321 64.61V74H457.781ZM452.741 74.21C451.541 74.21 450.491 74.01 449.591 73.61C448.691 73.19 447.991 72.62 447.491 71.9C447.011 71.16 446.771 70.33 446.771 69.41C446.771 68.51 446.981 67.7 447.401 66.98C447.841 66.26 448.551 65.69 449.531 65.27C450.511 64.85 451.811 64.64 453.431 64.64H458.081V67.13H453.701C452.421 67.13 451.561 67.34 451.121 67.76C450.681 68.16 450.461 68.66 450.461 69.26C450.461 69.94 450.731 70.48 451.271 70.88C451.811 71.28 452.561 71.48 453.521 71.48C454.441 71.48 455.261 71.27 455.981 70.85C456.721 70.43 457.251 69.81 457.571 68.99L458.201 71.24C457.841 72.18 457.191 72.91 456.251 73.43C455.331 73.95 454.161 74.21 452.741 74.21ZM465.961 74V57.98H469.711V70.82H477.361V57.98H481.111V74H465.961ZM480.031 77.57V73.91L480.901 74H477.361V70.82H483.541V77.57H480.031ZM486.879 74V57.98H490.629V68.54L499.479 57.98H502.899V74H499.149V63.44L490.329 74H486.879ZM518.114 74V68.54L518.654 69.17H513.854C511.654 69.17 509.924 68.71 508.664 67.79C507.424 66.85 506.804 65.5 506.804 63.74C506.804 61.86 507.464 60.43 508.784 59.45C510.124 58.47 511.904 57.98 514.124 57.98H521.474V74H518.114ZM506.594 74L510.914 67.88H514.754L510.614 74H506.594ZM518.114 67.34V60.14L518.654 61.13H514.244C513.084 61.13 512.184 61.35 511.544 61.79C510.924 62.21 510.614 62.9 510.614 63.86C510.614 65.66 511.784 66.56 514.124 66.56H518.654L518.114 67.34Z" fill="white"/>
<path d="M134.552 183.768H131.144V187.224H129.784V183.768H126.392V182.536H129.784V179.064H131.144V182.536H134.552V183.768ZM144.034 178.568L139.586 189H138.114L142.626 178.712H136.45V177.464H144.034V178.568ZM151.786 185.896C151.893 186.504 152.138 186.973 152.522 187.304C152.917 187.635 153.445 187.8 154.106 187.8C154.991 187.8 155.642 187.453 156.058 186.76C156.485 186.067 156.687 184.899 156.666 183.256C156.442 183.736 156.069 184.115 155.546 184.392C155.023 184.659 154.442 184.792 153.802 184.792C153.087 184.792 152.447 184.648 151.882 184.36C151.327 184.061 150.89 183.629 150.57 183.064C150.25 182.499 150.09 181.816 150.09 181.016C150.09 179.875 150.421 178.957 151.082 178.264C151.743 177.56 152.682 177.208 153.898 177.208C155.391 177.208 156.437 177.693 157.034 178.664C157.642 179.635 157.946 181.08 157.946 183C157.946 184.344 157.823 185.453 157.578 186.328C157.343 187.203 156.938 187.869 156.362 188.328C155.797 188.787 155.018 189.016 154.026 189.016C152.938 189.016 152.09 188.723 151.482 188.136C150.874 187.549 150.527 186.803 150.442 185.896H151.786ZM154.042 183.56C154.757 183.56 155.343 183.341 155.802 182.904C156.261 182.456 156.49 181.853 156.49 181.096C156.49 180.296 156.266 179.651 155.818 179.16C155.37 178.669 154.741 178.424 153.93 178.424C153.183 178.424 152.586 178.659 152.138 179.128C151.701 179.597 151.482 180.216 151.482 180.984C151.482 181.763 151.701 182.387 152.138 182.856C152.575 183.325 153.21 183.56 154.042 183.56ZM159.992 183.096C159.992 181.261 160.291 179.832 160.888 178.808C161.485 177.773 162.531 177.256 164.024 177.256C165.507 177.256 166.547 177.773 167.144 178.808C167.741 179.832 168.04 181.261 168.04 183.096C168.04 184.963 167.741 186.413 167.144 187.448C166.547 188.483 165.507 189 164.024 189C162.531 189 161.485 188.483 160.888 187.448C160.291 186.413 159.992 184.963 159.992 183.096ZM166.6 183.096C166.6 182.168 166.536 181.384 166.408 180.744C166.291 180.093 166.04 179.571 165.656 179.176C165.283 178.781 164.739 178.584 164.024 178.584C163.299 178.584 162.744 178.781 162.36 179.176C161.987 179.571 161.736 180.093 161.608 180.744C161.491 181.384 161.432 182.168 161.432 183.096C161.432 184.056 161.491 184.861 161.608 185.512C161.736 186.163 161.987 186.685 162.36 187.08C162.744 187.475 163.299 187.672 164.024 187.672C164.739 187.672 165.283 187.475 165.656 187.08C166.04 186.685 166.291 186.163 166.408 185.512C166.536 184.861 166.6 184.056 166.6 183.096ZM177.159 178.568L172.711 189H171.239L175.751 178.712H169.575V177.464H177.159V178.568ZM184.911 185.896C185.018 186.504 185.263 186.973 185.647 187.304C186.042 187.635 186.57 187.8 187.231 187.8C188.116 187.8 188.767 187.453 189.183 186.76C189.61 186.067 189.812 184.899 189.791 183.256C189.567 183.736 189.194 184.115 188.671 184.392C188.148 184.659 187.567 184.792 186.927 184.792C186.212 184.792 185.572 184.648 185.007 184.36C184.452 184.061 184.015 183.629 183.695 183.064C183.375 182.499 183.215 181.816 183.215 181.016C183.215 179.875 183.546 178.957 184.207 178.264C184.868 177.56 185.807 177.208 187.023 177.208C188.516 177.208 189.562 177.693 190.159 178.664C190.767 179.635 191.071 181.08 191.071 183C191.071 184.344 190.948 185.453 190.703 186.328C190.468 187.203 190.063 187.869 189.487 188.328C188.922 188.787 188.143 189.016 187.151 189.016C186.063 189.016 185.215 188.723 184.607 188.136C183.999 187.549 183.652 186.803 183.567 185.896H184.911ZM187.167 183.56C187.882 183.56 188.468 183.341 188.927 182.904C189.386 182.456 189.615 181.853 189.615 181.096C189.615 180.296 189.391 179.651 188.943 179.16C188.495 178.669 187.866 178.424 187.055 178.424C186.308 178.424 185.711 178.659 185.263 179.128C184.826 179.597 184.607 180.216 184.607 180.984C184.607 181.763 184.826 182.387 185.263 182.856C185.7 183.325 186.335 183.56 187.167 183.56ZM193.117 183.096C193.117 181.261 193.416 179.832 194.013 178.808C194.61 177.773 195.656 177.256 197.149 177.256C198.632 177.256 199.672 177.773 200.269 178.808C200.866 179.832 201.165 181.261 201.165 183.096C201.165 184.963 200.866 186.413 200.269 187.448C199.672 188.483 198.632 189 197.149 189C195.656 189 194.61 188.483 194.013 187.448C193.416 186.413 193.117 184.963 193.117 183.096ZM199.725 183.096C199.725 182.168 199.661 181.384 199.533 180.744C199.416 180.093 199.165 179.571 198.781 179.176C198.408 178.781 197.864 178.584 197.149 178.584C196.424 178.584 195.869 178.781 195.485 179.176C195.112 179.571 194.861 180.093 194.733 180.744C194.616 181.384 194.557 182.168 194.557 183.096C194.557 184.056 194.616 184.861 194.733 185.512C194.861 186.163 195.112 186.685 195.485 187.08C195.869 187.475 196.424 187.672 197.149 187.672C197.864 187.672 198.408 187.475 198.781 187.08C199.165 186.685 199.416 186.163 199.533 185.512C199.661 184.861 199.725 184.056 199.725 183.096ZM205.276 182.984C204.679 182.749 204.22 182.408 203.9 181.96C203.58 181.512 203.42 180.968 203.42 180.328C203.42 179.752 203.564 179.235 203.852 178.776C204.14 178.307 204.567 177.939 205.132 177.672C205.708 177.395 206.401 177.256 207.212 177.256C208.023 177.256 208.711 177.395 209.276 177.672C209.852 177.939 210.284 178.307 210.572 178.776C210.871 179.235 211.02 179.752 211.02 180.328C211.02 180.947 210.855 181.491 210.524 181.96C210.193 182.419 209.74 182.76 209.164 182.984C209.825 183.187 210.348 183.544 210.732 184.056C211.127 184.557 211.324 185.165 211.324 185.88C211.324 186.573 211.153 187.181 210.812 187.704C210.471 188.216 209.985 188.616 209.356 188.904C208.737 189.181 208.023 189.32 207.212 189.32C206.401 189.32 205.687 189.181 205.068 188.904C204.46 188.616 203.985 188.216 203.644 187.704C203.303 187.181 203.132 186.573 203.132 185.88C203.132 185.165 203.324 184.552 203.708 184.04C204.092 183.528 204.615 183.176 205.276 182.984ZM209.612 180.504C209.612 179.853 209.399 179.352 208.972 179C208.545 178.648 207.959 178.472 207.212 178.472C206.476 178.472 205.895 178.648 205.468 179C205.041 179.352 204.828 179.859 204.828 180.52C204.828 181.117 205.047 181.597 205.484 181.96C205.932 182.323 206.508 182.504 207.212 182.504C207.927 182.504 208.503 182.323 208.94 181.96C209.388 181.587 209.612 181.101 209.612 180.504ZM207.212 183.624C206.423 183.624 205.777 183.811 205.276 184.184C204.775 184.547 204.524 185.096 204.524 185.832C204.524 186.515 204.764 187.064 205.244 187.48C205.735 187.896 206.391 188.104 207.212 188.104C208.033 188.104 208.684 187.896 209.164 187.48C209.644 187.064 209.884 186.515 209.884 185.832C209.884 185.117 209.639 184.573 209.148 184.2C208.657 183.816 208.012 183.624 207.212 183.624ZM217.171 186.424V185.32L222.787 177.544H224.531V185.16H226.131V186.424H224.531V189H223.091V186.424H217.171ZM223.155 179.064L218.851 185.16H223.155V179.064ZM234.706 178.568L230.258 189H228.786L233.298 178.712H227.122V177.464H234.706V178.568ZM240.202 178.76V177.432H243.21V189H241.738V178.76H240.202ZM245.535 187.832C246.889 186.744 247.951 185.853 248.719 185.16C249.487 184.456 250.132 183.725 250.655 182.968C251.188 182.2 251.455 181.448 251.455 180.712C251.455 180.019 251.284 179.475 250.943 179.08C250.612 178.675 250.073 178.472 249.327 178.472C248.601 178.472 248.036 178.701 247.631 179.16C247.236 179.608 247.023 180.211 246.991 180.968H245.583C245.625 179.773 245.988 178.851 246.671 178.2C247.353 177.549 248.233 177.224 249.311 177.224C250.409 177.224 251.279 177.528 251.919 178.136C252.569 178.744 252.895 179.581 252.895 180.648C252.895 181.533 252.628 182.397 252.095 183.24C251.572 184.072 250.975 184.808 250.303 185.448C249.631 186.077 248.772 186.813 247.727 187.656H253.231V188.872H245.535V187.832Z" fill="white"/>
<path d="M125.688 259.584C125.688 258.688 125.869 257.904 126.232 257.232C126.595 256.549 127.091 256.021 127.72 255.648C128.36 255.275 129.075 255.088 129.864 255.088C130.547 255.088 131.181 255.248 131.768 255.568C132.355 255.877 132.803 256.288 133.112 256.8V252.16H134.584V264H133.112V262.352C132.824 262.875 132.397 263.307 131.832 263.648C131.267 263.979 130.605 264.144 129.848 264.144C129.069 264.144 128.36 263.952 127.72 263.568C127.091 263.184 126.595 262.645 126.232 261.952C125.869 261.259 125.688 260.469 125.688 259.584ZM133.112 259.6C133.112 258.939 132.979 258.363 132.712 257.872C132.445 257.381 132.083 257.008 131.624 256.752C131.176 256.485 130.68 256.352 130.136 256.352C129.592 256.352 129.096 256.48 128.648 256.736C128.2 256.992 127.843 257.365 127.576 257.856C127.309 258.347 127.176 258.923 127.176 259.584C127.176 260.256 127.309 260.843 127.576 261.344C127.843 261.835 128.2 262.213 128.648 262.48C129.096 262.736 129.592 262.864 130.136 262.864C130.68 262.864 131.176 262.736 131.624 262.48C132.083 262.213 132.445 261.835 132.712 261.344C132.979 260.843 133.112 260.261 133.112 259.6ZM145.045 259.28C145.045 259.557 145.029 259.851 144.997 260.16H137.989C138.042 261.024 138.335 261.701 138.869 262.192C139.413 262.672 140.069 262.912 140.837 262.912C141.466 262.912 141.989 262.768 142.405 262.48C142.831 262.181 143.13 261.787 143.301 261.296H144.869C144.634 262.139 144.165 262.827 143.461 263.36C142.757 263.883 141.882 264.144 140.837 264.144C140.005 264.144 139.258 263.957 138.597 263.584C137.946 263.211 137.434 262.683 137.061 262C136.687 261.307 136.501 260.507 136.501 259.6C136.501 258.693 136.682 257.899 137.045 257.216C137.407 256.533 137.914 256.011 138.565 255.648C139.226 255.275 139.983 255.088 140.837 255.088C141.669 255.088 142.405 255.269 143.045 255.632C143.685 255.995 144.175 256.496 144.517 257.136C144.869 257.765 145.045 258.48 145.045 259.28ZM143.541 258.976C143.541 258.421 143.418 257.947 143.173 257.552C142.927 257.147 142.591 256.843 142.165 256.64C141.749 256.427 141.285 256.32 140.773 256.32C140.037 256.32 139.407 256.555 138.885 257.024C138.373 257.493 138.079 258.144 138.005 258.976H143.541ZM157.51 255.072C158.193 255.072 158.801 255.216 159.334 255.504C159.868 255.781 160.289 256.203 160.598 256.768C160.908 257.333 161.062 258.021 161.062 258.832V264H159.622V259.04C159.622 258.165 159.404 257.499 158.966 257.04C158.54 256.571 157.958 256.336 157.222 256.336C156.465 256.336 155.862 256.581 155.414 257.072C154.966 257.552 154.742 258.251 154.742 259.168V264H153.302V259.04C153.302 258.165 153.084 257.499 152.646 257.04C152.22 256.571 151.638 256.336 150.902 256.336C150.145 256.336 149.542 256.581 149.094 257.072C148.646 257.552 148.422 258.251 148.422 259.168V264H146.966V255.232H148.422V256.496C148.71 256.037 149.094 255.685 149.574 255.44C150.065 255.195 150.604 255.072 151.19 255.072C151.926 255.072 152.577 255.237 153.142 255.568C153.708 255.899 154.129 256.384 154.406 257.024C154.652 256.405 155.057 255.925 155.622 255.584C156.188 255.243 156.817 255.072 157.51 255.072ZM167.275 264.144C166.453 264.144 165.707 263.957 165.035 263.584C164.373 263.211 163.851 262.683 163.467 262C163.093 261.307 162.907 260.507 162.907 259.6C162.907 258.704 163.099 257.915 163.483 257.232C163.877 256.539 164.411 256.011 165.083 255.648C165.755 255.275 166.507 255.088 167.339 255.088C168.171 255.088 168.923 255.275 169.595 255.648C170.267 256.011 170.795 256.533 171.179 257.216C171.573 257.899 171.771 258.693 171.771 259.6C171.771 260.507 171.568 261.307 171.163 262C170.768 262.683 170.229 263.211 169.547 263.584C168.864 263.957 168.107 264.144 167.275 264.144ZM167.275 262.864C167.797 262.864 168.288 262.741 168.747 262.496C169.205 262.251 169.573 261.883 169.851 261.392C170.139 260.901 170.283 260.304 170.283 259.6C170.283 258.896 170.144 258.299 169.867 257.808C169.589 257.317 169.227 256.955 168.779 256.72C168.331 256.475 167.845 256.352 167.323 256.352C166.789 256.352 166.299 256.475 165.851 256.72C165.413 256.955 165.061 257.317 164.795 257.808C164.528 258.299 164.395 258.896 164.395 259.6C164.395 260.315 164.523 260.917 164.779 261.408C165.045 261.899 165.397 262.267 165.835 262.512C166.272 262.747 166.752 262.864 167.275 262.864ZM181.685 253.744C182.869 253.744 183.898 253.968 184.773 254.416C185.648 254.864 186.32 255.493 186.789 256.304C187.258 257.104 187.493 258.032 187.493 259.088C187.493 259.931 187.354 260.741 187.077 261.52C186.8 262.288 186.394 262.912 185.861 263.392C185.338 263.872 184.725 264.112 184.021 264.112C183.488 264.112 183.077 263.979 182.789 263.712C182.501 263.445 182.336 263.083 182.293 262.624C181.962 263.083 181.541 263.445 181.029 263.712C180.528 263.979 179.994 264.112 179.429 264.112C178.618 264.112 177.978 263.867 177.509 263.376C177.05 262.875 176.821 262.203 176.821 261.36C176.821 260.56 176.986 259.813 177.317 259.12C177.658 258.427 178.128 257.872 178.725 257.456C179.322 257.029 180 256.816 180.757 256.816C181.77 256.816 182.453 257.2 182.805 257.968L182.981 256.976H184.245L183.445 261.6C183.413 261.803 183.397 261.989 183.397 262.16C183.397 262.8 183.68 263.12 184.245 263.12C184.672 263.12 185.04 262.917 185.349 262.512C185.669 262.107 185.909 261.6 186.069 260.992C186.229 260.373 186.309 259.765 186.309 259.168C186.309 257.771 185.888 256.688 185.045 255.92C184.213 255.152 183.034 254.768 181.509 254.768C180.24 254.768 179.093 255.077 178.069 255.696C177.056 256.304 176.261 257.141 175.685 258.208C175.109 259.275 174.821 260.453 174.821 261.744C174.81 263.152 175.232 264.235 176.085 264.992C176.938 265.76 178.122 266.144 179.637 266.144C180.64 266.144 181.525 265.963 182.293 265.6L182.485 266.592C181.536 266.987 180.49 267.184 179.349 267.184C178.208 267.184 177.2 266.965 176.325 266.528C175.461 266.101 174.789 265.483 174.309 264.672C173.84 263.872 173.605 262.939 173.605 261.872C173.605 260.368 173.952 258.997 174.645 257.76C175.338 256.512 176.298 255.531 177.525 254.816C178.762 254.101 180.149 253.744 181.685 253.744ZM179.861 262.976C180.341 262.976 180.784 262.837 181.189 262.56C181.594 262.272 181.914 261.888 182.149 261.408C182.384 260.917 182.501 260.384 182.501 259.808C182.501 259.253 182.346 258.805 182.037 258.464C181.738 258.112 181.312 257.936 180.757 257.936C180.245 257.936 179.792 258.091 179.397 258.4C179.013 258.699 178.714 259.099 178.501 259.6C178.288 260.091 178.181 260.603 178.181 261.136C178.181 261.701 178.325 262.149 178.613 262.48C178.901 262.811 179.317 262.976 179.861 262.976ZM193.504 255.088C194.262 255.088 194.923 255.253 195.488 255.584C196.064 255.915 196.491 256.331 196.768 256.832V255.232H198.24V264.192C198.24 264.992 198.07 265.701 197.728 266.32C197.387 266.949 196.896 267.44 196.256 267.792C195.627 268.144 194.891 268.32 194.048 268.32C192.896 268.32 191.936 268.048 191.168 267.504C190.4 266.96 189.947 266.219 189.808 265.28H191.248C191.408 265.813 191.739 266.24 192.24 266.56C192.742 266.891 193.344 267.056 194.048 267.056C194.848 267.056 195.499 266.805 196 266.304C196.512 265.803 196.768 265.099 196.768 264.192V262.352C196.48 262.864 196.054 263.291 195.488 263.632C194.923 263.973 194.262 264.144 193.504 264.144C192.726 264.144 192.016 263.952 191.376 263.568C190.747 263.184 190.251 262.645 189.888 261.952C189.526 261.259 189.344 260.469 189.344 259.584C189.344 258.688 189.526 257.904 189.888 257.232C190.251 256.549 190.747 256.021 191.376 255.648C192.016 255.275 192.726 255.088 193.504 255.088ZM196.768 259.6C196.768 258.939 196.635 258.363 196.368 257.872C196.102 257.381 195.739 257.008 195.28 256.752C194.832 256.485 194.336 256.352 193.792 256.352C193.248 256.352 192.752 256.48 192.304 256.736C191.856 256.992 191.499 257.365 191.232 257.856C190.966 258.347 190.832 258.923 190.832 259.584C190.832 260.256 190.966 260.843 191.232 261.344C191.499 261.835 191.856 262.213 192.304 262.48C192.752 262.736 193.248 262.864 193.792 262.864C194.336 262.864 194.832 262.736 195.28 262.48C195.739 262.213 196.102 261.835 196.368 261.344C196.635 260.843 196.768 260.261 196.768 259.6ZM211.245 255.072C211.927 255.072 212.535 255.216 213.069 255.504C213.602 255.781 214.023 256.203 214.333 256.768C214.642 257.333 214.797 258.021 214.797 258.832V264H213.357V259.04C213.357 258.165 213.138 257.499 212.701 257.04C212.274 256.571 211.693 256.336 210.957 256.336C210.199 256.336 209.597 256.581 209.149 257.072C208.701 257.552 208.477 258.251 208.477 259.168V264H207.037V259.04C207.037 258.165 206.818 257.499 206.381 257.04C205.954 256.571 205.373 256.336 204.637 256.336C203.879 256.336 203.277 256.581 202.829 257.072C202.381 257.552 202.157 258.251 202.157 259.168V264H200.701V255.232H202.157V256.496C202.445 256.037 202.829 255.685 203.309 255.44C203.799 255.195 204.338 255.072 204.925 255.072C205.661 255.072 206.311 255.237 206.877 255.568C207.442 255.899 207.863 256.384 208.141 257.024C208.386 256.405 208.791 255.925 209.357 255.584C209.922 255.243 210.551 255.072 211.245 255.072ZM216.641 259.584C216.641 258.688 216.822 257.904 217.185 257.232C217.548 256.549 218.044 256.021 218.673 255.648C219.313 255.275 220.022 255.088 220.801 255.088C221.569 255.088 222.236 255.253 222.801 255.584C223.366 255.915 223.788 256.331 224.065 256.832V255.232H225.537V264H224.065V262.368C223.777 262.88 223.345 263.307 222.769 263.648C222.204 263.979 221.542 264.144 220.785 264.144C220.006 264.144 219.302 263.952 218.673 263.568C218.044 263.184 217.548 262.645 217.185 261.952C216.822 261.259 216.641 260.469 216.641 259.584ZM224.065 259.6C224.065 258.939 223.932 258.363 223.665 257.872C223.398 257.381 223.036 257.008 222.577 256.752C222.129 256.485 221.633 256.352 221.089 256.352C220.545 256.352 220.049 256.48 219.601 256.736C219.153 256.992 218.796 257.365 218.529 257.856C218.262 258.347 218.129 258.923 218.129 259.584C218.129 260.256 218.262 260.843 218.529 261.344C218.796 261.835 219.153 262.213 219.601 262.48C220.049 262.736 220.545 262.864 221.089 262.864C221.633 262.864 222.129 262.736 222.577 262.48C223.036 262.213 223.398 261.835 223.665 261.344C223.932 260.843 224.065 260.261 224.065 259.6ZM228.75 253.808C228.472 253.808 228.238 253.712 228.046 253.52C227.854 253.328 227.758 253.093 227.758 252.816C227.758 252.539 227.854 252.304 228.046 252.112C228.238 251.92 228.472 251.824 228.75 251.824C229.016 251.824 229.24 251.92 229.422 252.112C229.614 252.304 229.71 252.539 229.71 252.816C229.71 253.093 229.614 253.328 229.422 253.52C229.24 253.712 229.016 253.808 228.75 253.808ZM229.454 255.232V264H227.998V255.232H229.454ZM233.391 252.16V264H231.935V252.16H233.391ZM236.337 264.096C236.059 264.096 235.825 264 235.633 263.808C235.441 263.616 235.345 263.381 235.345 263.104C235.345 262.827 235.441 262.592 235.633 262.4C235.825 262.208 236.059 262.112 236.337 262.112C236.603 262.112 236.827 262.208 237.009 262.4C237.201 262.592 237.297 262.827 237.297 263.104C237.297 263.381 237.201 263.616 237.009 263.808C236.827 264 236.603 264.096 236.337 264.096ZM238.688 259.6C238.688 258.693 238.869 257.904 239.232 257.232C239.595 256.549 240.096 256.021 240.736 255.648C241.387 255.275 242.128 255.088 242.96 255.088C244.037 255.088 244.923 255.349 245.616 255.872C246.32 256.395 246.784 257.12 247.008 258.048H245.44C245.291 257.515 244.997 257.093 244.56 256.784C244.133 256.475 243.6 256.32 242.96 256.32C242.128 256.32 241.456 256.608 240.944 257.184C240.432 257.749 240.176 258.555 240.176 259.6C240.176 260.656 240.432 261.472 240.944 262.048C241.456 262.624 242.128 262.912 242.96 262.912C243.6 262.912 244.133 262.763 244.56 262.464C244.987 262.165 245.28 261.739 245.44 261.184H247.008C246.773 262.08 246.304 262.8 245.6 263.344C244.896 263.877 244.016 264.144 242.96 264.144C242.128 264.144 241.387 263.957 240.736 263.584C240.096 263.211 239.595 262.683 239.232 262C238.869 261.317 238.688 260.517 238.688 259.6ZM252.775 264.144C251.953 264.144 251.207 263.957 250.535 263.584C249.873 263.211 249.351 262.683 248.967 262C248.593 261.307 248.407 260.507 248.407 259.6C248.407 258.704 248.599 257.915 248.983 257.232C249.377 256.539 249.911 256.011 250.583 255.648C251.255 255.275 252.007 255.088 252.839 255.088C253.671 255.088 254.423 255.275 255.095 255.648C255.767 256.011 256.295 256.533 256.679 257.216C257.073 257.899 257.271 258.693 257.271 259.6C257.271 260.507 257.068 261.307 256.663 262C256.268 262.683 255.729 263.211 255.047 263.584C254.364 263.957 253.607 264.144 252.775 264.144ZM252.775 262.864C253.297 262.864 253.788 262.741 254.247 262.496C254.705 262.251 255.073 261.883 255.351 261.392C255.639 260.901 255.783 260.304 255.783 259.6C255.783 258.896 255.644 258.299 255.367 257.808C255.089 257.317 254.727 256.955 254.279 256.72C253.831 256.475 253.345 256.352 252.823 256.352C252.289 256.352 251.799 256.475 251.351 256.72C250.913 256.955 250.561 257.317 250.295 257.808C250.028 258.299 249.895 258.896 249.895 259.6C249.895 260.315 250.023 260.917 250.279 261.408C250.545 261.899 250.897 262.267 251.335 262.512C251.772 262.747 252.252 262.864 252.775 262.864ZM269.729 255.072C270.412 255.072 271.02 255.216 271.553 255.504C272.086 255.781 272.508 256.203 272.817 256.768C273.126 257.333 273.281 258.021 273.281 258.832V264H271.841V259.04C271.841 258.165 271.622 257.499 271.185 257.04C270.758 256.571 270.177 256.336 269.441 256.336C268.684 256.336 268.081 256.581 267.633 257.072C267.185 257.552 266.961 258.251 266.961 259.168V264H265.521V259.04C265.521 258.165 265.302 257.499 264.865 257.04C264.438 256.571 263.857 256.336 263.121 256.336C262.364 256.336 261.761 256.581 261.313 257.072C260.865 257.552 260.641 258.251 260.641 259.168V264H259.185V255.232H260.641V256.496C260.929 256.037 261.313 255.685 261.793 255.44C262.284 255.195 262.822 255.072 263.409 255.072C264.145 255.072 264.796 255.237 265.361 255.568C265.926 255.899 266.348 256.384 266.625 257.024C266.87 256.405 267.276 255.925 267.841 255.584C268.406 255.243 269.036 255.072 269.729 255.072Z" fill="white"/>
<path d="M22 40C22 21.1438 22 11.7157 27.8579 5.85786C33.7157 0 43.1438 0 62 0H581C599.856 0 609.284 0 615.142 5.85786C621 11.7157 621 21.1438 621 40V626C621 644.856 621 654.284 615.142 660.142C609.284 666 599.856 666 581 666H62C43.1438 666 33.7157 666 27.8579 660.142C22 654.284 22 644.856 22 626V40Z" fill="black"/>
<circle cx="573" cy="83" r="80" fill="#D9D9D9" fill-opacity="0.28"/>
<circle cx="479" cy="88" r="60" fill="#D9D9D9" fill-opacity="0.16"/>
<path d="M-103 533C-103 643.457 -13.4569 733 97 733C207.457 733 297 643.457 297 533C297 422.543 207.457 333 97 333C-13.4569 333 -103 422.543 -103 533Z" fill="#D9D9D9" fill-opacity="0.16"/>
<path d="M413 553C413 624.245 355.245 682 284 682C212.755 682 155 624.245 155 553C155 481.755 212.755 424 284 424C355.245 424 413 481.755 413 553Z" fill="#D9D9D9" fill-opacity="0.1"/>
<path fill-rule="evenodd" clip-rule="evenodd" d="M566 183C566 189.627 560.627 195 554 195C547.373 195 542 189.627 542 183C542 176.373 547.373 171 554 171C560.627 171 566 176.373 566 183ZM554.43 179.859C553.263 180.344 550.93 181.349 547.432 182.873C546.864 183.099 546.566 183.32 546.539 183.536C546.493 183.902 546.951 184.045 547.573 184.241C547.658 184.268 547.746 184.295 547.836 184.325C548.449 184.524 549.273 184.757 549.701 184.766C550.09 184.774 550.524 184.614 551.003 184.285C554.271 182.079 555.958 180.964 556.064 180.94C556.139 180.923 556.243 180.901 556.313 180.964C556.383 181.026 556.376 181.144 556.369 181.176C556.323 181.369 554.528 183.038 553.599 183.902C553.31 184.171 553.104 184.362 553.062 184.406C552.968 184.503 552.872 184.596 552.78 184.685C552.211 185.233 551.784 185.645 552.804 186.317C553.294 186.64 553.686 186.907 554.077 187.173C554.504 187.464 554.93 187.754 555.482 188.116C555.622 188.208 555.756 188.303 555.887 188.397C556.384 188.751 556.831 189.069 557.383 189.019C557.703 188.989 558.034 188.688 558.203 187.788C558.6 185.663 559.382 181.058 559.562 179.161C559.578 178.995 559.558 178.782 559.542 178.689C559.526 178.595 559.493 178.462 559.371 178.364C559.228 178.247 559.006 178.222 558.906 178.224C558.455 178.232 557.762 178.473 554.43 179.859Z" fill="white"/>
<path fill-rule="evenodd" clip-rule="evenodd" d="M480 171C473.373 171 468 176.373 468 183C468 184.968 468.474 186.828 469.316 188.468L468.024 193.892C467.989 194.041 467.992 194.197 468.034 194.345C468.076 194.493 468.155 194.628 468.264 194.736C468.372 194.845 468.507 194.924 468.655 194.966C468.803 195.008 468.959 195.011 469.108 194.976L474.532 193.684C476.172 194.526 478.032 195 480 195C486.627 195 492 189.627 492 183C492 176.373 486.627 171 480 171ZM469.8 183C469.8 177.367 474.367 172.8 480 172.8C485.633 172.8 490.2 177.367 490.2 183C490.2 188.633 485.633 193.2 480 193.2C478.217 193.2 476.544 192.744 475.088 191.942C474.892 191.834 474.663 191.803 474.445 191.855L470.114 192.886L471.146 188.555C471.197 188.337 471.166 188.108 471.058 187.912C470.256 186.456 469.8 184.783 469.8 183ZM476.703 186.297C478.5 188.093 480.895 189.298 483.566 189.584C485.333 189.774 486.6 188.319 486.6 186.807V185.757C486.6 185.146 486.403 184.551 486.038 184.06C485.673 183.569 485.159 183.21 484.574 183.034L484.49 183.009L484.405 182.992L483.201 182.755C482.814 182.655 482.411 182.637 482.016 182.704C481.622 182.77 481.247 182.919 480.914 183.14C480.522 182.832 480.168 182.478 479.86 182.086C480.081 181.753 480.23 181.378 480.296 180.983C480.363 180.589 480.345 180.185 480.245 179.798L480.008 178.595L479.991 178.51L479.966 178.426C479.79 177.841 479.43 177.327 478.94 176.962C478.449 176.597 477.854 176.4 477.243 176.4H476.193C474.681 176.4 473.226 177.667 473.415 179.433C473.702 182.105 474.907 184.5 476.703 186.297ZM481.751 184.77C481.884 184.637 482.051 184.542 482.234 184.496C482.417 184.45 482.608 184.454 482.789 184.508L484.057 184.758C484.271 184.823 484.46 184.955 484.594 185.135C484.728 185.315 484.8 185.533 484.8 185.757V186.807C484.8 187.383 484.331 187.856 483.759 187.795C482.327 187.642 480.949 187.168 479.726 186.41C479.091 186.017 478.504 185.552 477.976 185.024C477.448 184.496 476.983 183.909 476.59 183.275C475.832 182.051 475.358 180.673 475.205 179.241C475.144 178.668 475.617 178.2 476.193 178.2H477.243C477.467 178.2 477.685 178.272 477.865 178.406C478.045 178.54 478.177 178.729 478.242 178.944L478.492 180.211C478.546 180.392 478.55 180.583 478.504 180.766C478.458 180.949 478.363 181.116 478.23 181.249L478.062 181.417C477.951 181.527 477.871 181.666 477.83 181.817C477.775 182.028 477.8 182.255 477.921 182.451C478.25 182.983 478.64 183.475 479.083 183.917C479.525 184.36 480.017 184.75 480.549 185.079C480.745 185.2 480.972 185.225 481.183 185.169C481.334 185.129 481.472 185.049 481.583 184.938L481.751 184.77Z" fill="white"/>
<path fill-rule="evenodd" clip-rule="evenodd" d="M394 175.8C394 173.149 396.149 171 398.8 171H413.2C415.851 171 418 173.149 418 175.8V190.2C418 192.851 415.851 195 413.2 195H398.8C396.149 195 394 192.851 394 190.2V175.8ZM398.8 173.4C397.475 173.4 396.4 174.475 396.4 175.8V190.2C396.4 191.526 397.475 192.6 398.8 192.6H413.2C414.526 192.6 415.6 191.526 415.6 190.2V175.8C415.6 174.475 414.526 173.4 413.2 173.4H398.8ZM406 179.4C404.012 179.4 402.4 181.012 402.4 183C402.4 184.988 404.012 186.6 406 186.6C407.988 186.6 409.6 184.988 409.6 183C409.6 181.012 407.988 179.4 406 179.4ZM400 183C400 179.686 402.686 177 406 177C409.314 177 412 179.686 412 183C412 186.314 409.314 189 406 189C402.686 189 400 186.314 400 183ZM412.6 178.2C413.594 178.2 414.4 177.394 414.4 176.4C414.4 175.406 413.594 174.6 412.6 174.6C411.606 174.6 410.8 175.406 410.8 176.4C410.8 177.394 411.606 178.2 412.6 178.2Z" fill="white"/>
<path d="M101 248H77V268H101V248ZM98.6 253L89 259.25L79.4 253V250.5L89 256.75L98.6 250.5V253Z" fill="white"/>
<path d="M98.4737 182.367H101C101 175.887 96.1078 171 89.6191 171V173.526C94.75 173.526 98.4737 177.244 98.4737 182.367Z" fill="white"/>
<path d="M89.6318 178.579C92.2882 178.579 93.4212 179.712 93.4212 182.368H95.9475C95.9475 178.295 93.7054 176.053 89.6318 176.053V178.579ZM93.9543 185.454C93.7115 185.234 93.3926 185.116 93.0648 185.126C92.7369 185.136 92.4258 185.273 92.1972 185.509L89.1745 188.617C88.447 188.478 86.9842 188.022 85.4786 186.52C83.9729 185.013 83.5169 183.547 83.3818 182.824L86.4878 179.8C86.7233 179.572 86.8606 179.261 86.8708 178.933C86.8809 178.605 86.763 178.286 86.5421 178.043L81.8748 172.911C81.6538 172.668 81.3467 172.52 81.0186 172.5C80.6905 172.479 80.3674 172.587 80.1178 172.801L77.3768 175.152C77.1584 175.371 77.028 175.663 77.0105 175.972C76.9915 176.288 76.6303 183.768 82.4306 189.571C87.4908 194.63 93.8292 195 95.5749 195C95.83 195 95.9866 194.992 96.0283 194.99C96.3372 194.973 96.6287 194.842 96.8468 194.622L99.1963 191.88C99.4104 191.631 99.5187 191.307 99.4985 190.979C99.4782 190.651 99.3308 190.344 99.0877 190.123L93.9543 185.454Z" fill="white"/>
</svg>
