<svg width="24" height="24" viewBox="0 0 24 24" fill="none" xmlns="http://www.w3.org/2000/svg">
<path d="M21.4737 11.3672H24C24 4.88716 19.1078 0 12.6191 0V2.52632C17.75 2.52632 21.4737 6.24379 21.4737 11.3672Z" fill="white"/>
<path d="M12.6318 7.57891C15.2882 7.57891 16.4212 8.71196 16.4212 11.3684H18.9475C18.9475 7.2947 16.7054 5.05259 12.6318 5.05259V7.57891ZM16.9543 14.4543C16.7115 14.2337 16.3926 14.116 16.0648 14.1262C15.7369 14.1363 15.4259 14.2734 15.1972 14.5086L12.1745 17.6172C11.447 17.4783 9.98423 17.0223 8.47857 15.5204C6.9729 14.0134 6.51691 12.5469 6.38175 11.8244L9.48782 8.80038C9.72328 8.57191 9.86062 8.26079 9.87075 7.93286C9.88089 7.60492 9.76304 7.28591 9.54213 7.04333L4.87482 1.91112C4.65383 1.66778 4.34668 1.52018 4.01861 1.49966C3.69053 1.47914 3.36739 1.58732 3.11779 1.80122L0.376773 4.15196C0.158389 4.37114 0.0280437 4.66285 0.0104613 4.97175C-0.00848585 5.28754 -0.369744 12.768 5.43061 18.5709C10.4908 23.6299 16.8292 24 18.5749 24C18.83 24 18.9866 23.9924 19.0283 23.9899C19.3372 23.9726 19.6287 23.8416 19.8468 23.6223L22.1963 20.88C22.4104 20.6305 22.5187 20.3075 22.4985 19.9794C22.4782 19.6513 22.3308 19.3441 22.0877 19.1229L16.9543 14.4543Z" fill="white"/>
</svg>
