<svg width="24" height="24" viewBox="0 0 24 24" fill="none" xmlns="http://www.w3.org/2000/svg">
<path fill-rule="evenodd" clip-rule="evenodd" d="M12 0C5.37255 0 0 5.37255 0 12C0 13.968 0.47445 15.8276 1.31565 17.4683L0.02445 22.8915C-0.011081 23.041 -0.00774326 23.1972 0.0341452 23.345C0.0760336 23.4929 0.155078 23.6276 0.263751 23.7362C0.372425 23.8449 0.507109 23.924 0.654977 23.9659C0.802846 24.0077 0.958976 24.0111 1.1085 23.9756L6.53175 22.6844C8.17245 23.5256 10.032 24 12 24C18.6275 24 24 18.6275 24 12C24 5.37255 18.6275 0 12 0ZM1.8 12C1.8 6.36675 6.36675 1.8 12 1.8C17.6333 1.8 22.2 6.36675 22.2 12C22.2 17.6333 17.6333 22.2 12 22.2C10.2174 22.2 8.544 21.7435 7.08795 20.9416C6.89201 20.8338 6.66294 20.8027 6.44535 20.8545L2.11425 21.8858L3.1455 17.5547C3.1973 17.3371 3.16623 17.108 3.05835 16.912C2.25645 15.4558 1.8 13.7826 1.8 12ZM8.70345 15.2966C10.4997 17.0927 12.8948 18.2976 15.5664 18.5844C17.3328 18.7739 18.6 17.3186 18.6 15.8069V14.7575C18.6 14.1459 18.4029 13.5507 18.0379 13.0601C17.6728 12.5695 17.1594 12.2096 16.5737 12.0339L16.4901 12.0089L16.4046 11.9921L15.2013 11.755C14.8144 11.6549 14.4106 11.6374 14.0165 11.7038C13.6223 11.7702 13.2466 11.9189 12.9138 12.1403C12.5221 11.8317 12.1683 11.4779 11.8598 11.0862C12.0812 10.7534 12.2299 10.3776 12.2963 9.98339C12.3627 9.58918 12.3453 9.1854 12.2451 8.7984L12.0078 7.59525L11.991 7.50975L11.966 7.4262C11.7902 6.84054 11.4304 6.32713 10.9399 5.96214C10.4493 5.59714 9.85415 5.40002 9.2427 5.4H8.193C6.68145 5.4 5.226 6.6669 5.41545 8.43345C5.70225 11.105 6.90705 13.5003 8.70345 15.2966ZM13.7513 13.7697C13.8845 13.6365 14.0512 13.5419 14.2339 13.4959C14.4165 13.4498 14.6082 13.4541 14.7887 13.5083L16.0566 13.758C16.2715 13.8225 16.4599 13.9546 16.5938 14.1346C16.7277 14.3147 16.8 14.5331 16.8 14.7575V15.8069C16.8 16.383 16.3314 16.8561 15.7586 16.7946C14.3273 16.6417 12.9488 16.1684 11.7255 15.4098C11.091 15.0167 10.5041 14.5515 9.97635 14.0237C9.44847 13.4959 8.98333 12.909 8.5902 12.2745C7.83168 11.0511 7.35838 9.67261 7.2054 8.2413C7.1439 7.66845 7.617 7.2 8.193 7.2H9.24255C9.46688 7.20006 9.68521 7.27243 9.86517 7.40636C10.0451 7.5403 10.1771 7.72868 10.2416 7.94355L10.4916 9.2112C10.5457 9.39164 10.55 9.58337 10.504 9.76604C10.458 9.94871 10.3633 10.1155 10.2301 10.2487L10.0622 10.4168C9.95097 10.5274 9.87102 10.6656 9.8304 10.8171C9.7746 11.0276 9.7998 11.2553 9.92085 11.4506C10.2503 11.9825 10.6401 12.4747 11.0826 12.9171C11.5251 13.3597 12.0172 13.7495 12.5493 14.079C12.7446 14.1999 12.9722 14.2253 13.1828 14.1695C13.3343 14.1288 13.4724 14.0488 13.5831 13.9377L13.7513 13.7697Z" fill="white"/>
</svg>
